<mxfile modified="2024-07-23T18:03:41.070Z" host="app.diagrams.net" agent="Mozilla/5.0 (Windows NT 10.0; Win64; x64) AppleWebKit/537.36 (KHTML, like Gecko) Chrome/126.0.0.0 Safari/537.36" etag="_JdpsNdZoU8Myha6zD-D" version="24.7.2" type="device">
  <diagram id="WI9T0HZ2pTsCkuznbFz-" name="Page-1">
    <mxGraphModel dx="2074" dy="3470" grid="1" gridSize="10" guides="1" tooltips="1" connect="1" arrows="1" fold="1" page="1" pageScale="1" pageWidth="827" pageHeight="1169" math="0" shadow="0">
      <root>
        <mxCell id="0" />
        <mxCell id="1" parent="0" />
        <mxCell id="jVJLE2luBFFKWMK33xKC-42" value="" style="rounded=0;whiteSpace=wrap;html=1;" vertex="1" parent="1">
          <mxGeometry x="970" y="-1220" width="820" height="1868" as="geometry" />
        </mxCell>
        <mxCell id="jVJLE2luBFFKWMK33xKC-19" style="edgeStyle=orthogonalEdgeStyle;rounded=0;orthogonalLoop=1;jettySize=auto;html=1;" edge="1" parent="1" source="JBRybCOSU0B7M9foIgmK-17" target="jVJLE2luBFFKWMK33xKC-12">
          <mxGeometry relative="1" as="geometry" />
        </mxCell>
        <mxCell id="JBRybCOSU0B7M9foIgmK-17" value="" style="shape=ext;double=1;rounded=0;whiteSpace=wrap;html=1;" parent="1" vertex="1">
          <mxGeometry x="242.5" y="-788" width="343" height="180" as="geometry" />
        </mxCell>
        <mxCell id="JBRybCOSU0B7M9foIgmK-23" style="edgeStyle=orthogonalEdgeStyle;rounded=0;orthogonalLoop=1;jettySize=auto;html=1;exitX=0.25;exitY=0;exitDx=0;exitDy=0;entryX=0.5;entryY=1;entryDx=0;entryDy=0;" parent="1" source="JBRybCOSU0B7M9foIgmK-17" target="JBRybCOSU0B7M9foIgmK-15" edge="1">
          <mxGeometry relative="1" as="geometry" />
        </mxCell>
        <mxCell id="JBRybCOSU0B7M9foIgmK-25" style="edgeStyle=orthogonalEdgeStyle;rounded=0;orthogonalLoop=1;jettySize=auto;html=1;exitX=1;exitY=0.25;exitDx=0;exitDy=0;entryX=0;entryY=0.25;entryDx=0;entryDy=0;" parent="1" edge="1">
          <mxGeometry relative="1" as="geometry">
            <mxPoint x="371" y="-1018" as="sourcePoint" />
            <mxPoint x="461" y="-1018" as="targetPoint" />
            <Array as="points">
              <mxPoint x="440" y="-1018" />
              <mxPoint x="440" y="-1018" />
            </Array>
          </mxGeometry>
        </mxCell>
        <mxCell id="JBRybCOSU0B7M9foIgmK-15" value="" style="shape=ext;double=1;rounded=0;whiteSpace=wrap;html=1;" parent="1" vertex="1">
          <mxGeometry x="27" y="-1108" width="343" height="180" as="geometry" />
        </mxCell>
        <mxCell id="JBRybCOSU0B7M9foIgmK-8" value="" style="rounded=1;whiteSpace=wrap;html=1;" parent="1" vertex="1">
          <mxGeometry x="48.5" y="-1078" width="90" height="140" as="geometry" />
        </mxCell>
        <mxCell id="JBRybCOSU0B7M9foIgmK-9" value="" style="rounded=1;whiteSpace=wrap;html=1;" parent="1" vertex="1">
          <mxGeometry x="153.5" y="-1078" width="90" height="140" as="geometry" />
        </mxCell>
        <mxCell id="JBRybCOSU0B7M9foIgmK-21" style="edgeStyle=orthogonalEdgeStyle;rounded=0;orthogonalLoop=1;jettySize=auto;html=1;exitX=0.5;exitY=0;exitDx=0;exitDy=0;entryX=0.5;entryY=1;entryDx=0;entryDy=0;" parent="1" source="JBRybCOSU0B7M9foIgmK-10" target="JBRybCOSU0B7M9foIgmK-14" edge="1">
          <mxGeometry relative="1" as="geometry" />
        </mxCell>
        <mxCell id="JBRybCOSU0B7M9foIgmK-10" value="" style="shape=image;verticalLabelPosition=bottom;labelBackgroundColor=#ffffff;verticalAlign=top;aspect=fixed;imageAspect=0;image=data:image/svg+xml,PHN2ZyB4bWxuczpkYz0iaHR0cDovL3B1cmwub3JnL2RjL2VsZW1lbnRzLzEuMS8iIHhtbG5zOmNjPSJodHRwOi8vY3JlYXRpdmVjb21tb25zLm9yZy9ucyMiIHhtbG5zOnJkZj0iaHR0cDovL3d3dy53My5vcmcvMTk5OS8wMi8yMi1yZGYtc3ludGF4LW5zIyIgeG1sbnM6c3ZnPSJodHRwOi8vd3d3LnczLm9yZy8yMDAwL3N2ZyIgeG1sbnM9Imh0dHA6Ly93d3cudzMub3JnLzIwMDAvc3ZnIiB4bWxuczpzb2RpcG9kaT0iaHR0cDovL3NvZGlwb2RpLnNvdXJjZWZvcmdlLm5ldC9EVEQvc29kaXBvZGktMC5kdGQiIHhtbG5zOmlua3NjYXBlPSJodHRwOi8vd3d3Lmlua3NjYXBlLm9yZy9uYW1lc3BhY2VzL2lua3NjYXBlIiB2ZXJzaW9uPSIxLjEiIGlkPSJzdmcyNjM3MTQiIGlua3NjYXBlOnZlcnNpb249IjAuOTIuMyAoMjQwNTU0NiwgMjAxOC0wMy0xMSkiIHNvZGlwb2RpOmRvY25hbWU9InNxbF9zZXJ2ZXIuc3ZnIiB4PSIwcHgiIHk9IjBweCIgdmlld0JveD0iMCAwIDQ4LjQxIDY5Ljc1IiBzdHlsZT0iZW5hYmxlLWJhY2tncm91bmQ6bmV3IDAgMCA0OC40MSA2OS43NTsiIHhtbDpzcGFjZT0icHJlc2VydmUiPjxtZXRhZGF0YSBpZD0ibWV0YWRhdGExNDM4OTgiPjxyZGY6UkRGPjxjYzpXb3JrIHJkZjphYm91dD0iIj48ZGM6Zm9ybWF0PmltYWdlL3N2Zyt4bWw8L2RjOmZvcm1hdD48ZGM6dHlwZSByZGY6cmVzb3VyY2U9Imh0dHA6Ly9wdXJsLm9yZy9kYy9kY21pdHlwZS9TdGlsbEltYWdlIi8+PGRjOnRpdGxlLz48L2NjOldvcms+PC9yZGY6UkRGPjwvbWV0YWRhdGE+PGRlZnMgaWQ9ImRlZnMxNDM4OTYiPiYjeGE7CSYjeGE7CSYjeGE7JiN4YTsJCSYjeGE7CQkmI3hhOwkJJiN4YTsJJiN4YTsJCQkmI3hhOwkJCSYjeGE7CQkJJiN4YTsJCQkmI3hhOwkJCSYjeGE7CQkJJiN4YTsJCQkmI3hhOwkJCSYjeGE7CQkJJiN4YTsJCQkmI3hhOwkJJiN4YTsJCQkmI3hhOwkJCSYjeGE7CQkJJiN4YTsJCSYjeGE7CQkJCSYjeGE7CQkJCSYjeGE7CQkJCQkmI3hhOwkJCSYjeGE7CQkJCSYjeGE7CQkJCSYjeGE7CQkJCSYjeGE7CQkJCSYjeGE7CQkJCSYjeGE7CQkJCSYjeGE7CQkJJiN4YTsJCQkJJiN4YTsJCQkJJiN4YTsJCQkJJiN4YTsJCQkmI3hhOwkJCQkmI3hhOwkJCQkmI3hhOwkJCQkmI3hhOwkJCSYjeGE7CQkJCSYjeGE7CQkJCSYjeGE7CQkJCSYjeGE7CQkJJiN4YTsJCQkJJiN4YTsJCQkJJiN4YTsJCQkJJiN4YTsJCQkmI3hhOwkJCQkmI3hhOwkJCQkmI3hhOwkJCQkmI3hhOwkJCSYjeGE7CQkJCSYjeGE7CQkJCSYjeGE7CQkJCSYjeGE7CQkJJiN4YTsJCQkJJiN4YTsJCQkJJiN4YTsJCQkJJiN4YTsJCQkmI3hhOwkJCQkmI3hhOwkJCQkmI3hhOwkJCQkmI3hhOwkJCSYjeGE7CQkJCSYjeGE7CQkJCSYjeGE7CQkJCSYjeGE7CQkJJiN4YTsJCQkJCSYjeGE7CQkJCSYjeGE7CQkJCQkmI3hhOwkJCQkmI3hhOwkJCQkJJiN4YTsJCQkJJiN4YTsJCQkJCSYjeGE7CQkJCSYjeGE7CQkJCQkmI3hhOwkJCQkmI3hhOwkJCQkJJiN4YTsJCQkJJiN4YTsJCQkJCSYjeGE7CQkJCSYjeGE7CQkJCQkmI3hhOwkJCQkmI3hhOwkJCQkJJiN4YTsJCQkJJiN4YTsJCQkJCSYjeGE7CQkJCQkmI3hhOwkJCQkmI3hhOwkJCQkJJiN4YTsJCQkJCSYjeGE7CQkJCSYjeGE7CQkJCQkmI3hhOwkJCQkJJiN4YTsJCQkJJiN4YTsJCQkJCSYjeGE7CQkJCQkmI3hhOwkJCQkJJiN4YTsJCQkJCSYjeGE7CQkJCQkmI3hhOwkJCQkJJiN4YTsJCQkJCSYjeGE7CQkJCQkmI3hhOwkJCQkJJiN4YTsJCQkJCSYjeGE7CQkJCSYjeGE7CQkJCQkmI3hhOwkJCQkJJiN4YTsJCQkJCQkmI3hhOwkJCQkmI3hhOwkJCQkJCSYjeGE7CQkJCQkJJiN4YTsJCQkJCSYjeGE7CQkJCQkJJiN4YTsJCQkJCQkmI3hhOwkJCQkJJiN4YTsJCQkJCQkmI3hhOwkJCQkJCSYjeGE7CQkJCQkmI3hhOwkJCQkJCSYjeGE7CQkJCQkJJiN4YTsJCQkJCSYjeGE7CQkJCQkJJiN4YTsJCQkJCQkmI3hhOwkJCQkJJiN4YTsJCQkJCQkmI3hhOwkJCQkJCSYjeGE7CQkJCQkmI3hhOwkJCQkJCSYjeGE7CQkJCQkJJiN4YTsJCQkJCSYjeGE7CQkJCQkJJiN4YTsJCQkJCQkmI3hhOwkJCQkJJiN4YTsJCQkJCQkmI3hhOwkJCQkJCSYjeGE7CQkJCQkmI3hhOwkJCQkJCSYjeGE7CQkJCQkmI3hhOwkJCQkJCSYjeGE7CQkJCQkmI3hhOwkJCQkJCSYjeGE7CQkJCQkmI3hhOwkJCQkJCSYjeGE7CQkJCQkmI3hhOwkJCQkJCSYjeGE7CQkJCQkmI3hhOwkJCQkJCSYjeGE7CQkJCQkmI3hhOwkJCQkJCSYjeGE7CQkJCQkmI3hhOwkJCQkJCSYjeGE7CQkJCQk8L2RlZnM+JiN4YTs8ZmlsdGVyIGlkPSJmaWx0ZXJfMiI+JiN4YTsJPGZlR2F1c3NpYW5CbHVyIGlkPSJmZUdhdXNzaWFuQmx1cjI2MzU0OSIgc3RkRGV2aWF0aW9uPSIyIi8+JiN4YTs8L2ZpbHRlcj4mI3hhOzxzb2RpcG9kaTpuYW1lZHZpZXcgYm9yZGVyY29sb3I9IiM2NjY2NjYiIGJvcmRlcm9wYWNpdHk9IjEiIGZpdC1tYXJnaW4tYm90dG9tPSIwIiBmaXQtbWFyZ2luLWxlZnQ9IjAiIGZpdC1tYXJnaW4tcmlnaHQ9IjAiIGZpdC1tYXJnaW4tdG9wPSIwIiBncmlkdG9sZXJhbmNlPSIxMCIgZ3VpZGV0b2xlcmFuY2U9IjEwIiBpZD0ibmFtZWR2aWV3MjYzNzE2IiBpbmtzY2FwZTpjdXJyZW50LWxheWVyPSJzdmcyNjM3MTQiIGlua3NjYXBlOmN4PSIyOC41NjA4NjUiIGlua3NjYXBlOmN5PSIxMy40NTY0MDciIGlua3NjYXBlOnBhZ2VvcGFjaXR5PSIwIiBpbmtzY2FwZTpwYWdlc2hhZG93PSIyIiBpbmtzY2FwZTp3aW5kb3ctaGVpZ2h0PSIxMDE3IiBpbmtzY2FwZTp3aW5kb3ctbWF4aW1pemVkPSIxIiBpbmtzY2FwZTp3aW5kb3ctd2lkdGg9IjE5MjAiIGlua3NjYXBlOndpbmRvdy14PSItOCIgaW5rc2NhcGU6d2luZG93LXk9Ii04IiBpbmtzY2FwZTp6b29tPSI1LjgzNjk3NDIiIG9iamVjdHRvbGVyYW5jZT0iMTAiIHBhZ2Vjb2xvcj0iI2ZmZmZmZiIgc2hvd2dyaWQ9ImZhbHNlIj4mI3hhOwk8L3NvZGlwb2RpOm5hbWVkdmlldz4mI3hhOzxyZWN0IGhlaWdodD0iNjguMjUiIHdpZHRoPSIzOS43NSIgc3R5bGU9ImZpbGw6I2ZmZmZmZjtzdHJva2U6IzU1NmE4YTtzdHJva2Utd2lkdGg6MS41O3N0cm9rZS1taXRlcmxpbWl0OjMiIHk9IjAuNzQ2NzAwMjkiIHg9IjAuNzQ5OTMxNTEiIGlkPSJyZWN0MjYzNTYzIi8+PHJlY3QgaWQ9InJlY3QyNjM1NzAiIHg9IjIwLjI0OTkzMSIgeT0iMS40OTY3MDA0IiBzdHlsZT0iZmlsbDojZTVlNWU1IiB3aWR0aD0iMTkuNSIgaGVpZ2h0PSI2Ni43NSIvPjxyZWN0IGlkPSJyZWN0MjYzNTc1IiB4PSIyLjI0OTkzMTYiIHk9IjE3Ljk5NjY5NiIgc3R5bGU9ImZpbGw6IzJiYzdmNCIgd2lkdGg9IjE4IiBoZWlnaHQ9IjIuMjUiLz48cmVjdCBpZD0icmVjdDI2MzU4MCIgeD0iMi4yNDk5MzE2IiB5PSI3LjQ5NjY5NjUiIHN0eWxlPSJmaWxsOm5vbmUiIHdpZHRoPSIyNyIgaGVpZ2h0PSIyLjI1Ii8+PHJlY3QgaWQ9InJlY3QyNjM1ODUiIHg9IjIuMjQ5OTMxNiIgeT0iNy40OTY2OTY1IiBzdHlsZT0iZmlsbDpub25lIiB3aWR0aD0iMjciIGhlaWdodD0iMi4yNSIvPjxyZWN0IGlkPSJyZWN0MjYzNTkwIiB4PSIyLjI0OTkzMTYiIHk9IjEyLjc0NjY5NiIgc3R5bGU9ImZpbGw6IzJiYzdmNCIgd2lkdGg9IjE4IiBoZWlnaHQ9IjIuMjUiLz48cmVjdCBpZD0icmVjdDI2MzU5NSIgeD0iMi4yNDk5MzE2IiB5PSI3LjQ5NjY5NjUiIHN0eWxlPSJmaWxsOiMyYmM3ZjQiIHdpZHRoPSIxOCIgaGVpZ2h0PSIyLjI1Ii8+PHJlY3QgaWQ9InJlY3QyNjM2MDAiIHg9IjIwLjI0OTkzMSIgeT0iMTcuOTk2Njk2IiBzdHlsZT0iZmlsbDojNTU2YThhIiB3aWR0aD0iMTkuNSIgaGVpZ2h0PSIyLjI1Ii8+PHJlY3QgaWQ9InJlY3QyNjM2MDUiIHg9IjIwLjI0OTkzMSIgeT0iMTIuNzQ2Njk2IiBzdHlsZT0iZmlsbDojNTU2YThhIiB3aWR0aD0iMTkuNSIgaGVpZ2h0PSIyLjI1Ii8+PHJlY3QgaWQ9InJlY3QyNjM2MTAiIHg9IjIwLjI0OTkzMSIgeT0iNy40OTY2OTY1IiBzdHlsZT0iZmlsbDojNTU2YThhIiB3aWR0aD0iMTkuNSIgaGVpZ2h0PSIyLjI1Ii8+PHJlY3QgaGVpZ2h0PSIyLjI1IiB3aWR0aD0iMi4yNSIgc3R5bGU9ImZpbGw6IzU1NmE4YSIgeT0iNy40OTY2OTY1IiB4PSIxLjQ5OTkzMTUiIGlkPSJyZWN0MjYzNjE2Ii8+PHJlY3QgaGVpZ2h0PSIyLjI1IiB3aWR0aD0iMi4yNSIgc3R5bGU9ImZpbGw6IzU1NmE4YSIgeT0iMTIuNzQ2Njk2IiB4PSIxLjQ5OTkzMTUiIGlkPSJyZWN0MjYzNjIxIi8+PHJlY3QgaGVpZ2h0PSIyLjI1IiB3aWR0aD0iMi4yNSIgc3R5bGU9ImZpbGw6IzU1NmE4YSIgeT0iMTcuOTk2Njk2IiB4PSIxLjQ5OTkzMTUiIGlkPSJyZWN0MjYzNjI2Ii8+PHBhdGggaWQ9InBhdGgyNjM2MzIiIGlua3NjYXBlOmNvbm5lY3Rvci1jdXJ2YXR1cmU9IjAiIHN0eWxlPSJmaWxsOiNmZmZmZmY7c3Ryb2tlOiMyMDc1Yjg7c3Ryb2tlLXdpZHRoOjEuNTtzdHJva2UtbWl0ZXJsaW1pdDozIiBkPSJtIDIyLjcxODIzMiw2OS4wMDQwOTkgLTguMjcsLTE0LjIzIDguMjcsLTE0LjI0IGggMTYuNTUgbCA4LjI3LDE0LjI0IC04LjI3LDE0LjIzIHoiLz48cGF0aCBpZD0icGF0aDI2MzY0MyIgaW5rc2NhcGU6Y29ubmVjdG9yLWN1cnZhdHVyZT0iMCIgc3R5bGU9ImZpbGw6IzAwNzJjNiIgZD0ibSAyMi4zODI0MzIsNDYuMjQ5OTY5IHYgMTYuNDQgYyAwLDEuNzEgMy44MiwzLjA5IDguNTMsMy4wOSB2IC0xOS41MyB6Ii8+PHBhdGggaWQ9InBhdGgyNjM2NTEiIGlua3NjYXBlOmNvbm5lY3Rvci1jdXJ2YXR1cmU9IjAiIHN0eWxlPSJmaWxsOiMwMDcyYzYiIGQ9Im0gMzAuNzk5MzIyLDY1Ljc3OTUxNCBoIDAuMTIgYyA0LjcxLDAgOC41MywtMS4zOCA4LjUzLC0zLjA5IHYgLTE2LjQ0IGggLTguNjUgeiIvPjxwYXRoIGlkPSJwYXRoMjYzNjU5IiBpbmtzY2FwZTpjb25uZWN0b3ItY3VydmF0dXJlPSIwIiBzdHlsZT0iZmlsbDojZmZmZmZmO2ZpbGwtb3BhY2l0eTowLjE1IiBkPSJtIDMwLjc5OTMyMiw2NS43Nzk1MTQgaCAwLjEyIGMgNC43MSwwIDguNTMsLTEuMzggOC41MywtMy4wOSB2IC0xNi40NCBoIC04LjY1IHoiLz48cGF0aCBpZD0icGF0aDI2MzY2NyIgaW5rc2NhcGU6Y29ubmVjdG9yLWN1cnZhdHVyZT0iMCIgc3R5bGU9ImZpbGw6I2ZmZmZmZiIgZD0ibSAzOS40NTI0MzIsNDYuMjQ3NzY5IGMgMCwxLjcxIC0zLjgyLDMuMDkgLTguNTQsMy4wOSAtNC43MSwwIC04LjUzLC0xLjM4IC04LjUzLC0zLjA5IDAsLTEuNyAzLjgyLC0zLjA5IDguNTMsLTMuMDkgNC43MiwwIDguNTQsMS4zOSA4LjU0LDMuMDkgeiIvPjxwYXRoIGlkPSJwYXRoMjYzNjc1IiBpbmtzY2FwZTpjb25uZWN0b3ItY3VydmF0dXJlPSIwIiBzdHlsZT0iZmlsbDojN2ZiYTAwIiBkPSJtIDM3LjcwNjczMiw0Ni4wNjg0NjkgYyAwLDEuMTMgLTMuMDQsMi4wNCAtNi43OSwyLjA0IC0zLjc1LDAgLTYuNzksLTAuOTEgLTYuNzksLTIuMDQgMCwtMS4xMiAzLjA0LC0yLjA0IDYuNzksLTIuMDQgMy43NSwwIDYuNzksMC45MiA2Ljc5LDIuMDQgeiIvPjxwYXRoIGlkPSJwYXRoMjYzNjgzIiBpbmtzY2FwZTpjb25uZWN0b3ItY3VydmF0dXJlPSIwIiBzdHlsZT0iZmlsbDojYjhkNDMyIiBkPSJtIDM2LjI4NzE4Miw0Ny4zMTUyNjkgYyAwLjg4LC0wLjM0IDEuNDIsLTAuNzcgMS40MiwtMS4yNCAwLC0xLjEzIC0zLjA0LC0yLjA0IC02Ljc5LC0yLjA0IC0zLjc1LDAgLTYuNzksMC45MSAtNi43OSwyLjA0IDAsMC40NyAwLjUzLDAuOSAxLjQyLDEuMjQgMS4yNCwtMC40OCAzLjE4LC0wLjc5IDUuMzcsLTAuNzkgMi4xOSwwIDQuMTIsMC4zMSA1LjM3LDAuNzkgeiIvPjxwYXRoIGlkPSJwYXRoMjYzNjkxIiBpbmtzY2FwZTpjb25uZWN0b3ItY3VydmF0dXJlPSIwIiBzdHlsZT0iZmlsbDojZmZmZmZmIiBkPSJtIDI4LjIwODE0Miw1Ny42Njc2NDkgYyAwLDAuNTEgLTAuMTksMC45IC0wLjU2LDEuMTggLTAuMzcsMC4yOCAtMC44OCwwLjQyIC0xLjUzLDAuNDIgLTAuNTYsMCAtMS4wMiwtMC4xIC0xLjQsLTAuMyB2IC0xLjIgYyAwLjQzLDAuMzcgMC45MSwwLjU1IDEuNDMsMC41NSAwLjI1LDAgMC40NCwtMC4wNSAwLjU4LC0wLjE1IDAuMTMsLTAuMSAwLjIsLTAuMjMgMC4yLC0wLjQgMCwtMC4xNiAtMC4wNiwtMC4zIC0wLjIsLTAuNDIgLTAuMTMsLTAuMTIgLTAuMzksLTAuMjggLTAuOCwtMC40NyAtMC44MiwtMC4zOCAtMS4yMywtMC45MSAtMS4yMywtMS41OCAwLC0wLjQ4IDAuMTgsLTAuODcgMC41NCwtMS4xNiAwLjM2LC0wLjI5IDAuODMsLTAuNDQgMS40MiwtMC40NCAwLjUzLDAgMC45NywwLjA3IDEuMzEsMC4yMSB2IDEuMTIgYyAtMC4zNiwtMC4yNSAtMC43NywtMC4zNyAtMS4yNCwtMC4zNyAtMC4yMywwIC0wLjQxLDAuMDUgLTAuNTUsMC4xNSAtMC4xNCwwLjA5IC0wLjIsMC4yMyAtMC4yLDAuMzkgMCwwLjE3IDAuMDUsMC4zMSAwLjE2LDAuNDIgMC4xMSwwLjExIDAuMzMsMC4yNCAwLjY3LDAuNCAwLjUsMC4yNCAwLjg2LDAuNDggMS4wOCwwLjczIDAuMjEsMC4yNCAwLjMyLDAuNTUgMC4zMiwwLjkyIHoiLz48cGF0aCBpZD0icGF0aDI2MzY5OSIgaW5rc2NhcGU6Y29ubmVjdG9yLWN1cnZhdHVyZT0iMCIgc3R5bGU9ImZpbGw6I2ZmZmZmZiIgZD0ibSAzNC4wMDM1NTIsNTYuNDQ4Mzg5IGMgMCwwLjYzIC0wLjE1LDEuMTggLTAuNDQsMS42NSAtMC4yOCwwLjQ2IC0wLjY5LDAuNzkgLTEuMjEsMC45OCBsIDEuNTYsMS40NCBoIC0xLjU4IGwgLTEuMTEsLTEuMjUgYyAtMC40OCwtMC4wMSAtMC45MSwtMC4xNCAtMS4zLC0wLjM4IC0wLjM4LC0wLjIzIC0wLjY4LC0wLjU1IC0wLjg5LC0wLjk2IC0wLjIxLC0wLjQxIC0wLjMxLC0wLjg3IC0wLjMxLC0xLjM3IDAsLTAuNTYgMC4xMSwtMS4wNiAwLjM0LC0xLjUgMC4yMywtMC40MyAwLjU0LC0wLjc3IDAuOTYsLTEgMC40MSwtMC4yNCAwLjg4LC0wLjM2IDEuNDEsLTAuMzYgMC40OSwwIDAuOTQsMC4xMiAxLjMzLDAuMzQgMC4zOSwwLjIzIDAuNjksMC41NiAwLjkxLDAuOTggMC4yMiwwLjQyIDAuMzMsMC45IDAuMzMsMS40MyB6IG0gLTEuMjgsMC4wNyBjIDAsLTAuNTUgLTAuMTIsLTAuOTggLTAuMzYsLTEuMyAtMC4yMywtMC4zMSAtMC41NiwtMC40NyAtMC45NywtMC40NyAtMC40MiwwIC0wLjc2LDAuMTYgLTEuMDEsMC40NyAtMC4yNiwwLjMyIC0wLjM4LDAuNzQgLTAuMzgsMS4yNyAwLDAuNTMgMC4xMiwwLjk1IDAuMzcsMS4yNiAwLjI1LDAuMzIgMC41OCwwLjQ3IDAuOTksMC40NyAwLjQxLDAgMC43NSwtMC4xNSAwLjk5LC0wLjQ1IDAuMjUsLTAuMzEgMC4zNywtMC43MiAwLjM3LC0xLjI1IHoiLz48cGF0aCBpZD0icGF0aDI2MzcwNyIgaW5rc2NhcGU6Y29ubmVjdG9yLWN1cnZhdHVyZT0iMCIgc3R5bGU9ImZpbGw6I2ZmZmZmZiIgZD0ibSAzOC4xMDA3MzIsNTkuMTczODU5IGggLTMuMjEgdiAtNS4zOCBoIDEuMjEgdiA0LjQgaCAyIHoiLz4mI3hhOzwvc3ZnPg==;" parent="1" vertex="1">
          <mxGeometry x="289" y="1000" width="48" height="70" as="geometry" />
        </mxCell>
        <mxCell id="JBRybCOSU0B7M9foIgmK-14" value="" style="shape=image;verticalLabelPosition=bottom;labelBackgroundColor=#ffffff;verticalAlign=top;aspect=fixed;imageAspect=0;image=data:image/svg+xml,PHN2ZyB4bWxuczpjYz0iaHR0cDovL2NyZWF0aXZlY29tbW9ucy5vcmcvbnMjIiB4bWxuczpkYz0iaHR0cDovL3B1cmwub3JnL2RjL2VsZW1lbnRzLzEuMS8iIHhtbG5zOmlua3NjYXBlPSJodHRwOi8vd3d3Lmlua3NjYXBlLm9yZy9uYW1lc3BhY2VzL2lua3NjYXBlIiB4bWxuczpyZGY9Imh0dHA6Ly93d3cudzMub3JnLzE5OTkvMDIvMjItcmRmLXN5bnRheC1ucyMiIHhtbG5zOnNvZGlwb2RpPSJodHRwOi8vc29kaXBvZGkuc291cmNlZm9yZ2UubmV0L0RURC9zb2RpcG9kaS0wLmR0ZCIgeG1sbnM6c3ZnPSJodHRwOi8vd3d3LnczLm9yZy8yMDAwL3N2ZyIgeG1sbnM9Imh0dHA6Ly93d3cudzMub3JnLzIwMDAvc3ZnIiB4bWxuczp4bGluaz0iaHR0cDovL3d3dy53My5vcmcvMTk5OS94bGluayIgdmVyc2lvbj0iMS4xIiBpZD0ic3ZnNDM5ODQiIGlua3NjYXBlOnZlcnNpb249IjAuOTIuMyAoMjQwNTU0NiwgMjAxOC0wMy0xMSkiIHNvZGlwb2RpOmRvY25hbWU9ImNsb3VkLnN2ZyIgeD0iMHB4IiB5PSIwcHgiIHZpZXdCb3g9IjAgMCA4NS41NCA0My4xIiBzdHlsZT0iZW5hYmxlLWJhY2tncm91bmQ6bmV3IDAgMCA4NS41NCA0My4xOyIgeG1sOnNwYWNlPSJwcmVzZXJ2ZSI+JiN4YTs8c29kaXBvZGk6bmFtZWR2aWV3IGJvcmRlcmNvbG9yPSIjNjY2NjY2IiBib3JkZXJvcGFjaXR5PSIxIiBmaXQtbWFyZ2luLWJvdHRvbT0iMCIgZml0LW1hcmdpbi1sZWZ0PSIwIiBmaXQtbWFyZ2luLXJpZ2h0PSIwIiBmaXQtbWFyZ2luLXRvcD0iMCIgZ3JpZHRvbGVyYW5jZT0iMTAiIGd1aWRldG9sZXJhbmNlPSIxMCIgaWQ9Im5hbWVkdmlldzQzOTg2IiBpbmtzY2FwZTpjdXJyZW50LWxheWVyPSJzdmc0Mzk4NCIgaW5rc2NhcGU6Y3g9IjQyLjgyODY2NCIgaW5rc2NhcGU6Y3k9IjMwLjkyMDQ4NiIgaW5rc2NhcGU6cGFnZW9wYWNpdHk9IjAiIGlua3NjYXBlOnBhZ2VzaGFkb3c9IjIiIGlua3NjYXBlOndpbmRvdy1oZWlnaHQ9IjEwMTciIGlua3NjYXBlOndpbmRvdy1tYXhpbWl6ZWQ9IjEiIGlua3NjYXBlOndpbmRvdy13aWR0aD0iMTkyMCIgaW5rc2NhcGU6d2luZG93LXg9Ii04IiBpbmtzY2FwZTp3aW5kb3cteT0iLTgiIGlua3NjYXBlOnpvb209IjguNzc5MzQ3NiIgb2JqZWN0dG9sZXJhbmNlPSIxMCIgcGFnZWNvbG9yPSIjZmZmZmZmIiBzaG93Z3JpZD0iZmFsc2UiPiYjeGE7CTwvc29kaXBvZGk6bmFtZWR2aWV3PiYjeGE7PGcgaWQ9Imc0Mzk4MiIgdHJhbnNmb3JtPSJ0cmFuc2xhdGUoLTAuNzUwMTIzMzksLTAuNzUpIj4mI3hhOwk8dGl0bGUgaWQ9InRpdGxlNDM5NjIiPlBhZ2UtMTwvdGl0bGU+JiN4YTsJPGcgaWQ9Imdyb3VwNDgwNS0xIiB0cmFuc2Zvcm09InRyYW5zbGF0ZSgwLjc1MDcwMywtMC43NSkiPiYjeGE7CQk8dGl0bGUgaWQ9InRpdGxlNDM5NjQiPkNsb3VkPC90aXRsZT4mI3hhOwkJPGcgaWQ9InNoYXBlNDgwNi0yIiB0cmFuc2Zvcm09InRyYW5zbGF0ZSg0Mi4wNiwtNS4yNzI1KSI+JiN4YTsJCQk8dGl0bGUgaWQ9InRpdGxlNDM5NjYiPnBhdGgzMjQ0PC90aXRsZT4mI3hhOwkJCSYjeGE7CQkJCTxwYXRoIGlkPSJwYXRoNDM5NjgiIGlua3NjYXBlOmNvbm5lY3Rvci1jdXJ2YXR1cmU9IjAiIHN0eWxlPSJmaWxsOiNGRkZGRkY7c3Ryb2tlOiMwMEJDRjI7c3Ryb2tlLXdpZHRoOjEuNTtzdHJva2UtbWl0ZXJsaW1pdDozOyIgZD0iICAgICBNMzYuNywyMS41MnYtMC4yM2MwLTAuNzYtMC4xMS0xLjUyLTAuMy0yLjI1Yy0wLjI0LTQuNDYtNC4wNS03Ljg4LTguNTEtNy42NGMtMS43NiwwLjEtMy40NCwwLjc2LTQuNzgsMS45ICAgICBjLTEuODQtMi40My00Ljc1LTMuOC03LjgtMy42OWMtNS45MSwwLTEwLjM4LDUuMTYtMTAuNSwxMC45OGMwLDAuNDEsMC4xLDAuNzEsMC4xLDEuMTFDMS44LDIzLjIsMCwyNS44MSwwLDI5LjEyICAgICBjMC4wNSw0Ljc4LDMuODYsOC42Niw4LjY0LDguOGMwLjQ1LDMuMjgsMy40LDYuMzQsOC40NCw2LjM0YzQuMjYsMCw2LjgsMC4zNCw5LjktMy4xNWMxLjUxLDAuODUsMy4yMSwxLjMyLDQuOTUsMS4zNSAgICAgYzYsMCwxMC44LTUuMjUsMTAuOC0xMS4yNUM0Mi43MywyNy4wOSw0MC4zOSwyMy4zNCwzNi43LDIxLjUyeiIvPiYjeGE7CQk8L2c+JiN4YTsJCTxnIGlkPSJzaGFwZTQ4MDctNCI+JiN4YTsJCQk8dGl0bGUgaWQ9InRpdGxlNDM5NzEiPnBhdGgzMjQ2PC90aXRsZT4mI3hhOwkJCTxwYXRoIGlkPSJwYXRoNDM5NzMiIGlua3NjYXBlOmNvbm5lY3Rvci1jdXJ2YXR1cmU9IjAiIHN0eWxlPSJmaWxsOiMyQkM3RjQ7IiBkPSJNNzUsMzMuNjVjMCw2LjA1LTQuNCwxMC45NS05LjgzLDEwLjk1SDkuODMgICAgIEM0LjIyLDQzLjMzLDAsMzcuNTQsMCwzMC45MWMtMC4wMi0xLjYzLDAuMjQtMy4yNiwwLjc1LTQuODFjMC4yMi0wLjY4LDAuNS0xLjM0LDAuODMtMS45N2MxLjk1LTQuMDcsNS45OS02LjcyLDEwLjUtNi44OSAgICAgYzAuMjktMi4yNywwLjk3LTQuNDcsMi4wMi02LjVjMC4yNy0wLjUyLDAuNTUtMS4wMiwwLjg2LTEuNWMzLTQuNjgsNy45Mi03LjczLDEzLjUtNy43M2M4LjE0LDAsMTQuOSw2LjU1LDE2LjI3LDE1LjE3ICAgICBjMS45NS0xLjg1LDQuNTMtMi44OCw3LjIxLTIuOWM1LjIsMCw5LjU3LDMuOTMsMTAuODYsOS4yN2MwLjc2LTAuMjIsMS41NS0wLjMzLDIuMzQtMC4zM0M3MC42LDIyLjcsNzUsMjcuNTgsNzUsMzMuNjV6Ii8+JiN4YTsJCTwvZz4mI3hhOwkJPGcgaWQ9InNoYXBlNDgwOC02IiB0cmFuc2Zvcm09InRyYW5zbGF0ZSgxNS4wMTUpIj4mI3hhOwkJCTx0aXRsZSBpZD0idGl0bGU0Mzk3NiI+cGF0aDMyNDg8L3RpdGxlPiYjeGE7CQkJPHBhdGggaWQ9InBhdGg0Mzk3OCIgaW5rc2NhcGU6Y29ubmVjdG9yLWN1cnZhdHVyZT0iMCIgc3R5bGU9ImZpbGw6IzU1RDJGNjsiIGQ9Ik01OS45OCwzMy42NWMwLDYuMDUtNC40LDEwLjk1LTkuODMsMTAuOTVIMzUuMzggICAgIEwwLDkuMjNDMyw0LjU1LDcuOTIsMS41LDEzLjUsMS41YzguMTQsMCwxNC44OSw2LjU1LDE2LjI3LDE1LjE3YzEuOTQtMS44NSw0LjUyLTIuODgsNy4yLTIuOWM1LjIxLDAsOS41NywzLjkzLDEwLjg2LDkuMjcgICAgIGMwLjc2LTAuMjIsMS41NS0wLjMzLDIuMzQtMC4zM0M1NS41OCwyMi43LDU5Ljk4LDI3LjU4LDU5Ljk4LDMzLjY1eiIvPiYjeGE7CQk8L2c+JiN4YTsJPC9nPiYjeGE7PC9nPiYjeGE7PC9zdmc+;" parent="1" vertex="1">
          <mxGeometry x="270" y="890" width="86" height="43" as="geometry" />
        </mxCell>
        <mxCell id="JBRybCOSU0B7M9foIgmK-24" style="edgeStyle=orthogonalEdgeStyle;rounded=0;orthogonalLoop=1;jettySize=auto;html=1;exitX=0.5;exitY=1;exitDx=0;exitDy=0;entryX=0.75;entryY=0;entryDx=0;entryDy=0;" parent="1" source="JBRybCOSU0B7M9foIgmK-16" target="JBRybCOSU0B7M9foIgmK-17" edge="1">
          <mxGeometry relative="1" as="geometry" />
        </mxCell>
        <mxCell id="JBRybCOSU0B7M9foIgmK-16" value="" style="shape=ext;double=1;rounded=0;whiteSpace=wrap;html=1;" parent="1" vertex="1">
          <mxGeometry x="460" y="-1108" width="343" height="180" as="geometry" />
        </mxCell>
        <mxCell id="JBRybCOSU0B7M9foIgmK-29" value="Cloud Hosting" style="text;strokeColor=none;fillColor=none;html=1;fontSize=24;fontStyle=1;verticalAlign=middle;align=center;" parent="1" vertex="1">
          <mxGeometry x="274" y="850" width="100" height="40" as="geometry" />
        </mxCell>
        <mxCell id="JBRybCOSU0B7M9foIgmK-31" value="Updates" style="text;strokeColor=none;fillColor=none;html=1;fontSize=24;fontStyle=1;verticalAlign=middle;align=center;" parent="1" vertex="1">
          <mxGeometry x="204" y="-898" width="100" height="40" as="geometry" />
        </mxCell>
        <mxCell id="JBRybCOSU0B7M9foIgmK-32" value="Manipulates" style="text;strokeColor=none;fillColor=none;html=1;fontSize=24;fontStyle=1;verticalAlign=middle;align=center;" parent="1" vertex="1">
          <mxGeometry x="506" y="-898" width="100" height="40" as="geometry" />
        </mxCell>
        <mxCell id="JBRybCOSU0B7M9foIgmK-33" value="UI Events" style="text;html=1;align=center;verticalAlign=middle;whiteSpace=wrap;rounded=0;" parent="1" vertex="1">
          <mxGeometry x="384" y="-1058" width="60" height="30" as="geometry" />
        </mxCell>
        <mxCell id="JBRybCOSU0B7M9foIgmK-38" value="&lt;font style=&quot;font-size: 18px;&quot;&gt;View&lt;/font&gt;" style="text;html=1;align=center;verticalAlign=middle;whiteSpace=wrap;rounded=0;" parent="1" vertex="1">
          <mxGeometry x="21" y="-1138" width="60" height="30" as="geometry" />
        </mxCell>
        <mxCell id="JBRybCOSU0B7M9foIgmK-39" value="&lt;font style=&quot;font-size: 18px;&quot;&gt;Controller&lt;/font&gt;" style="text;html=1;align=center;verticalAlign=middle;whiteSpace=wrap;rounded=0;" parent="1" vertex="1">
          <mxGeometry x="469" y="-1138" width="60" height="30" as="geometry" />
        </mxCell>
        <mxCell id="JBRybCOSU0B7M9foIgmK-40" value="&lt;font style=&quot;font-size: 18px;&quot;&gt;Offline Model&lt;/font&gt;" style="text;html=1;align=center;verticalAlign=middle;whiteSpace=wrap;rounded=0;" parent="1" vertex="1">
          <mxGeometry x="353.59000000000003" y="-818" width="125.5" height="30" as="geometry" />
        </mxCell>
        <mxCell id="t3G3vY_G053MM_05NjWp-22" value="" style="shape=ext;double=1;rounded=1;whiteSpace=wrap;html=1;" parent="1" vertex="1">
          <mxGeometry x="472" y="-1097" width="140" height="60" as="geometry" />
        </mxCell>
        <mxCell id="JBRybCOSU0B7M9foIgmK-46" value="Update Database command" style="text;html=1;align=center;verticalAlign=middle;whiteSpace=wrap;rounded=0;" parent="1" vertex="1">
          <mxGeometry x="526.14" y="-1082" width="60" height="30" as="geometry" />
        </mxCell>
        <mxCell id="JBRybCOSU0B7M9foIgmK-45" value="" style="sketch=0;outlineConnect=0;fontColor=#232F3E;gradientColor=none;fillColor=#7AA116;strokeColor=none;dashed=0;verticalLabelPosition=bottom;verticalAlign=top;align=center;html=1;fontSize=12;fontStyle=0;aspect=fixed;pointerEvents=1;shape=mxgraph.aws4.iot_over_the_air_update;" parent="1" vertex="1">
          <mxGeometry x="483" y="-1082" width="37.14" height="30" as="geometry" />
        </mxCell>
        <mxCell id="t3G3vY_G053MM_05NjWp-23" value="" style="shape=ext;double=1;rounded=1;whiteSpace=wrap;html=1;" parent="1" vertex="1">
          <mxGeometry x="650" y="-1097" width="140" height="60" as="geometry" />
        </mxCell>
        <mxCell id="t3G3vY_G053MM_05NjWp-14" value="" style="shape=image;verticalLabelPosition=bottom;labelBackgroundColor=#ffffff;verticalAlign=top;aspect=fixed;imageAspect=0;image=data:image/svg+xml,PHN2ZyB4bWxuczpjYz0iaHR0cDovL2NyZWF0aXZlY29tbW9ucy5vcmcvbnMjIiB4bWxuczpkYz0iaHR0cDovL3B1cmwub3JnL2RjL2VsZW1lbnRzLzEuMS8iIHhtbG5zOmlua3NjYXBlPSJodHRwOi8vd3d3Lmlua3NjYXBlLm9yZy9uYW1lc3BhY2VzL2lua3NjYXBlIiB4bWxuczpyZGY9Imh0dHA6Ly93d3cudzMub3JnLzE5OTkvMDIvMjItcmRmLXN5bnRheC1ucyMiIHhtbG5zOnNvZGlwb2RpPSJodHRwOi8vc29kaXBvZGkuc291cmNlZm9yZ2UubmV0L0RURC9zb2RpcG9kaS0wLmR0ZCIgeG1sbnM6c3ZnPSJodHRwOi8vd3d3LnczLm9yZy8yMDAwL3N2ZyIgeG1sbnM9Imh0dHA6Ly93d3cudzMub3JnLzIwMDAvc3ZnIiB4bWxuczp4bGluaz0iaHR0cDovL3d3dy53My5vcmcvMTk5OS94bGluayIgdmVyc2lvbj0iMS4xIiBpZD0ic3ZnODgzMzkiIGlua3NjYXBlOnZlcnNpb249IjAuOTIuMyAoMjQwNTU0NiwgMjAxOC0wMy0xMSkiIHNvZGlwb2RpOmRvY25hbWU9InNlY3VyZV9sb2NrLnN2ZyIgeD0iMHB4IiB5PSIwcHgiIHZpZXdCb3g9IjAgMCA0MS41OSA1Ni45MiIgc3R5bGU9ImVuYWJsZS1iYWNrZ3JvdW5kOm5ldyAwIDAgNDEuNTkgNTYuOTI7IiB4bWw6c3BhY2U9InByZXNlcnZlIj4mI3hhOzxzb2RpcG9kaTpuYW1lZHZpZXcgYm9yZGVyY29sb3I9IiM2NjY2NjYiIGJvcmRlcm9wYWNpdHk9IjEiIGZpdC1tYXJnaW4tYm90dG9tPSIwIiBmaXQtbWFyZ2luLWxlZnQ9IjAiIGZpdC1tYXJnaW4tcmlnaHQ9IjAiIGZpdC1tYXJnaW4tdG9wPSIwIiBncmlkdG9sZXJhbmNlPSIxMCIgZ3VpZGV0b2xlcmFuY2U9IjEwIiBpZD0ibmFtZWR2aWV3ODgzNDEiIGlua3NjYXBlOmN1cnJlbnQtbGF5ZXI9InN2Zzg4MzM5IiBpbmtzY2FwZTpjeD0iMjMuNjU1Njk3IiBpbmtzY2FwZTpjeT0iMjUuODQ2NzQyIiBpbmtzY2FwZTpwYWdlb3BhY2l0eT0iMCIgaW5rc2NhcGU6cGFnZXNoYWRvdz0iMiIgaW5rc2NhcGU6d2luZG93LWhlaWdodD0iMTAxNyIgaW5rc2NhcGU6d2luZG93LW1heGltaXplZD0iMSIgaW5rc2NhcGU6d2luZG93LXdpZHRoPSIxOTIwIiBpbmtzY2FwZTp3aW5kb3cteD0iLTgiIGlua3NjYXBlOndpbmRvdy15PSItOCIgaW5rc2NhcGU6em9vbT0iNS43MTE5NTM1IiBvYmplY3R0b2xlcmFuY2U9IjEwIiBwYWdlY29sb3I9IiNmZmZmZmYiIHNob3dncmlkPSJmYWxzZSI+JiN4YTsJPC9zb2RpcG9kaTpuYW1lZHZpZXc+JiN4YTs8ZyBpZD0iZzg4MzM3IiB0cmFuc2Zvcm09InRyYW5zbGF0ZSgwLC0wLjAwMTcpIj4mI3hhOwk8dGl0bGUgaWQ9InRpdGxlODgzMDciPlBhZ2UtMTwvdGl0bGU+JiN4YTsJPGcgaWQ9Imdyb3VwNDQ2OC0xIj4mI3hhOwkJPHRpdGxlIGlkPSJ0aXRsZTg4MzA5Ij5TZWN1cmUvTG9jazwvdGl0bGU+JiN4YTsJCTxnIGlkPSJzaGFwZTQ0NjktMiIgdHJhbnNmb3JtPSJ0cmFuc2xhdGUoOS4wNDAzNywtMzAuNzM4MykiPiYjeGE7CQkJPHRpdGxlIGlkPSJ0aXRsZTg4MzExIj5TaGVldC40NDY5PC90aXRsZT4mI3hhOwkJCTxwYXRoIGlkPSJwYXRoODgzMTMiIGlua3NjYXBlOmNvbm5lY3Rvci1jdXJ2YXR1cmU9IjAiIHN0eWxlPSJmaWxsOiM0RDRFNEU7IiBkPSJNMTEuNzksMzAuNzRDNS4yMSwzMC43NCwwLDM2LjE2LDAsNDMuNHYxMy41MiAgICAgaDIzLjVWNDQuMjZsMCwwQzIzLjUsMzcuMSwxOC4zNywzMC43NCwxMS43OSwzMC43NHogTTE5LjAyLDU2LjA1SDQuNTZWNDMuNGwwLDBjMC00LjcxLDMuMTEtOC4xOCw3LjIzLTguMTggICAgIGMzLjgzLDAsNy4yMyw0LjIsNy4yMyw5LjA0VjU2LjA1eiIvPiYjeGE7CQk8L2c+JiN4YTsJCTxnIGlkPSJzaGFwZTQ0NzAtNCI+JiN4YTsJCQk8dGl0bGUgaWQ9InRpdGxlODgzMTYiPlNoZWV0LjQ0NzA8L3RpdGxlPiYjeGE7CQkJPHBhdGggaWQ9InBhdGg4ODMxOCIgaW5rc2NhcGU6Y29ubmVjdG9yLWN1cnZhdHVyZT0iMCIgc3R5bGU9ImZpbGw6Izc3NTBBMzsiIGQ9Ik00MS41OSwyNS4zMVY1My4zYzAsMS40NS0wLjgsMi42OC0yLjEsMy4zMyAgICAgYy0wLjUxLDAuMjItMS4wMSwwLjI5LTEuNTIsMC4yOUgzLjYyYy0wLjczLDAtMS40NS0wLjIyLTIuMDMtMC42NUMwLjU4LDU1LjYyLDAsNTQuNDYsMCw1My4zVjI1LjMxYzAtMi4wMiwxLjY2LTMuNjEsMy42Mi0zLjYxICAgICBoMzQuMzVDMzkuOTksMjEuNyw0MS41OSwyMy4yOSw0MS41OSwyNS4zMXoiLz4mI3hhOwkJPC9nPiYjeGE7CQk8ZyBpZD0ic2hhcGU0NDcxLTYiIHRyYW5zZm9ybT0idHJhbnNsYXRlKDQuNTU2MzQsLTAuMjg5MzAyKSI+JiN4YTsJCQk8dGl0bGUgaWQ9InRpdGxlODgzMjEiPlNoZWV0LjQ0NzE8L3RpdGxlPiYjeGE7CQkJPHBhdGggaWQ9InBhdGg4ODMyMyIgaW5rc2NhcGU6Y29ubmVjdG9yLWN1cnZhdHVyZT0iMCIgc3R5bGU9ImZpbGw6IzkyNzNCNjsiIGQ9Ik0zNy4wMywyNS42djI3Ljk5YzAsMS40NS0wLjgsMi42OC0yLjEsMy4zMyAgICAgTDAsMjEuOTloMzMuNDFsMCwwQzM1LjQ0LDIxLjk5LDM3LjAzLDIzLjU4LDM3LjAzLDI1LjZ6Ii8+JiN4YTsJCTwvZz4mI3hhOwkJPGcgaWQ9InNoYXBlNDQ3Mi04IiB0cmFuc2Zvcm09InRyYW5zbGF0ZSgxNS40MDQ4LC0xNy4xNDExKSI+JiN4YTsJCQk8dGl0bGUgaWQ9InRpdGxlODgzMjYiPlNoZWV0LjQ0NzI8L3RpdGxlPiYjeGE7CQkJPHBhdGggaWQ9InBhdGg4ODMyOCIgaW5rc2NhcGU6Y29ubmVjdG9yLWN1cnZhdHVyZT0iMCIgc3R5bGU9ImZpbGw6I0ZGRkZGRjsiIGQ9Ik0xMC44NSw1MS41YzAsMi45Ni0yLjQ2LDUuNDItNS40Myw1LjQyICAgICBDMi4zOSw1Ni45MiwwLDU0LjQ2LDAsNTEuNWMwLTMuMDQsMi4zOS01LjQzLDUuNDItNS40M0M4LjM5LDQ2LjA3LDEwLjg1LDQ4LjQ2LDEwLjg1LDUxLjV6Ii8+JiN4YTsJCTwvZz4mI3hhOwkJPGcgaWQ9InNoYXBlNDQ3My0xMCIgdHJhbnNmb3JtPSJ0cmFuc2xhdGUoMTkuMDIwOSwtOC4xMDA0NSkiPiYjeGE7CQkJPHRpdGxlIGlkPSJ0aXRsZTg4MzMxIj5TaGVldC40NDczPC90aXRsZT4mI3hhOwkJCTxwYXRoIGlkPSJwYXRoODgzMzMiIGlua3NjYXBlOmNvbm5lY3Rvci1jdXJ2YXR1cmU9IjAiIHN0eWxlPSJmaWxsOiNGRkZGRkY7IiBkPSJNMS44MSwzOC44NGMxLjAxLDAsMS44MSwwLjc5LDEuODEsMS44MXYxNC40NiAgICAgYzAsMC45NC0wLjgsMS44MS0xLjgxLDEuODFDMC44LDU2LjkyLDAsNTYuMDUsMCw1NS4xMVY0MC42NUMwLDM5LjYzLDAuOCwzOC44NCwxLjgxLDM4Ljg0eiIvPiYjeGE7CQk8L2c+JiN4YTsJPC9nPiYjeGE7PC9nPiYjeGE7PC9zdmc+;" parent="1" vertex="1">
          <mxGeometry x="663.5" y="-1087" width="28" height="38" as="geometry" />
        </mxCell>
        <mxCell id="t3G3vY_G053MM_05NjWp-24" value="" style="shape=ext;double=1;rounded=1;whiteSpace=wrap;html=1;" parent="1" vertex="1">
          <mxGeometry x="561.5" y="-1013" width="140" height="60" as="geometry" />
        </mxCell>
        <mxCell id="t3G3vY_G053MM_05NjWp-15" value="" style="html=1;verticalLabelPosition=bottom;align=center;labelBackgroundColor=#ffffff;verticalAlign=top;strokeWidth=2;strokeColor=#0080F0;shadow=0;dashed=0;shape=mxgraph.ios7.icons.pointer;" parent="1" vertex="1">
          <mxGeometry x="576" y="-995.5" width="30" height="25" as="geometry" />
        </mxCell>
        <mxCell id="t3G3vY_G053MM_05NjWp-25" value="Form Validation" style="text;html=1;align=center;verticalAlign=middle;whiteSpace=wrap;rounded=0;" parent="1" vertex="1">
          <mxGeometry x="701.5" y="-1082" width="60" height="30" as="geometry" />
        </mxCell>
        <mxCell id="t3G3vY_G053MM_05NjWp-26" value="Send Input" style="text;html=1;align=center;verticalAlign=middle;whiteSpace=wrap;rounded=0;" parent="1" vertex="1">
          <mxGeometry x="620" y="-997.5" width="60" height="30" as="geometry" />
        </mxCell>
        <mxCell id="ej2HnTE7Z-c9Mij_yXRL-2" value="Birder View" style="text;html=1;align=center;verticalAlign=middle;whiteSpace=wrap;rounded=0;" parent="1" vertex="1">
          <mxGeometry x="50.5" y="-1108" width="83" height="30" as="geometry" />
        </mxCell>
        <mxCell id="ej2HnTE7Z-c9Mij_yXRL-3" value="Conservationist View" style="text;html=1;align=center;verticalAlign=middle;whiteSpace=wrap;rounded=0;" parent="1" vertex="1">
          <mxGeometry x="137" y="-1108" width="123" height="30" as="geometry" />
        </mxCell>
        <mxCell id="Fylf4QB3TnmaDcpgcURX-1" value="" style="rounded=1;whiteSpace=wrap;html=1;" parent="1" vertex="1">
          <mxGeometry x="258" y="-1078" width="90" height="140" as="geometry" />
        </mxCell>
        <mxCell id="Fylf4QB3TnmaDcpgcURX-2" value="Guest View" style="text;html=1;align=center;verticalAlign=middle;whiteSpace=wrap;rounded=0;" parent="1" vertex="1">
          <mxGeometry x="239.5" y="-1108" width="123" height="30" as="geometry" />
        </mxCell>
        <mxCell id="jVJLE2luBFFKWMK33xKC-1" value="" style="sketch=0;aspect=fixed;pointerEvents=1;shadow=0;dashed=0;html=1;strokeColor=none;labelPosition=center;verticalLabelPosition=bottom;verticalAlign=top;align=center;fillColor=#00188D;shape=mxgraph.mscae.enterprise.filter" vertex="1" parent="1">
          <mxGeometry x="380.66" y="-480" width="66.67" height="60" as="geometry" />
        </mxCell>
        <mxCell id="jVJLE2luBFFKWMK33xKC-20" style="edgeStyle=orthogonalEdgeStyle;rounded=0;orthogonalLoop=1;jettySize=auto;html=1;" edge="1" parent="1" source="jVJLE2luBFFKWMK33xKC-12" target="jVJLE2luBFFKWMK33xKC-1">
          <mxGeometry relative="1" as="geometry" />
        </mxCell>
        <mxCell id="jVJLE2luBFFKWMK33xKC-12" value="" style="outlineConnect=0;dashed=0;verticalLabelPosition=bottom;verticalAlign=top;align=center;html=1;shape=mxgraph.aws3.queue;fillColor=#D9A741;gradientColor=none;direction=south;" vertex="1" parent="1">
          <mxGeometry x="390" y="-584" width="48" height="73.5" as="geometry" />
        </mxCell>
        <mxCell id="jVJLE2luBFFKWMK33xKC-13" value="" style="group" vertex="1" connectable="0" parent="1">
          <mxGeometry x="90" y="-490" width="105" height="45" as="geometry" />
        </mxCell>
        <mxCell id="t3G3vY_G053MM_05NjWp-1" value="" style="rounded=1;whiteSpace=wrap;html=1;" parent="jVJLE2luBFFKWMK33xKC-13" vertex="1">
          <mxGeometry width="105" height="45" as="geometry" />
        </mxCell>
        <mxCell id="JBRybCOSU0B7M9foIgmK-41" value="OAuth" style="text;html=1;align=center;verticalAlign=middle;whiteSpace=wrap;rounded=0;" parent="jVJLE2luBFFKWMK33xKC-13" vertex="1">
          <mxGeometry x="36.75" y="7.5" width="60" height="30" as="geometry" />
        </mxCell>
        <mxCell id="JBRybCOSU0B7M9foIgmK-13" value="" style="verticalLabelPosition=bottom;html=1;verticalAlign=top;align=center;strokeColor=none;fillColor=#00BEF2;shape=mxgraph.azure.azure_active_directory;" parent="jVJLE2luBFFKWMK33xKC-13" vertex="1">
          <mxGeometry x="8.25" y="7.5" width="28.5" height="30" as="geometry" />
        </mxCell>
        <mxCell id="jVJLE2luBFFKWMK33xKC-14" value="" style="group" vertex="1" connectable="0" parent="1">
          <mxGeometry x="90" y="-550" width="105" height="45" as="geometry" />
        </mxCell>
        <mxCell id="t3G3vY_G053MM_05NjWp-7" value="" style="rounded=1;whiteSpace=wrap;html=1;" parent="jVJLE2luBFFKWMK33xKC-14" vertex="1">
          <mxGeometry width="105" height="45" as="geometry" />
        </mxCell>
        <mxCell id="t3G3vY_G053MM_05NjWp-12" value="" style="verticalLabelPosition=bottom;shadow=0;dashed=0;align=center;html=1;verticalAlign=top;strokeWidth=1;shape=mxgraph.mockup.graphics.columnChart;strokeColor=none;strokeColor2=none;strokeColor3=#666666;fillColor2=#008cff;fillColor3=#dddddd;" parent="jVJLE2luBFFKWMK33xKC-14" vertex="1">
          <mxGeometry x="9.5" y="7.5" width="30" height="30" as="geometry" />
        </mxCell>
        <mxCell id="t3G3vY_G053MM_05NjWp-13" value="User Rankings" style="text;html=1;align=center;verticalAlign=middle;whiteSpace=wrap;rounded=0;" parent="jVJLE2luBFFKWMK33xKC-14" vertex="1">
          <mxGeometry x="40.5" y="7.5" width="60" height="30" as="geometry" />
        </mxCell>
        <mxCell id="jVJLE2luBFFKWMK33xKC-15" value="" style="group" vertex="1" connectable="0" parent="1">
          <mxGeometry x="270" y="-770" width="105" height="45" as="geometry" />
        </mxCell>
        <mxCell id="t3G3vY_G053MM_05NjWp-6" value="" style="rounded=1;whiteSpace=wrap;html=1;" parent="jVJLE2luBFFKWMK33xKC-15" vertex="1">
          <mxGeometry width="105" height="45" as="geometry" />
        </mxCell>
        <mxCell id="JBRybCOSU0B7M9foIgmK-43" value="" style="sketch=0;outlineConnect=0;fontColor=#232F3E;gradientColor=none;fillColor=#232F3D;strokeColor=none;dashed=0;verticalLabelPosition=bottom;verticalAlign=top;align=center;html=1;fontSize=12;fontStyle=0;aspect=fixed;pointerEvents=1;shape=mxgraph.aws4.magnifying_glass_2;" parent="jVJLE2luBFFKWMK33xKC-15" vertex="1">
          <mxGeometry x="7.5" y="7.5" width="30" height="30" as="geometry" />
        </mxCell>
        <mxCell id="JBRybCOSU0B7M9foIgmK-44" value="Bird Search" style="text;html=1;align=center;verticalAlign=middle;whiteSpace=wrap;rounded=0;" parent="jVJLE2luBFFKWMK33xKC-15" vertex="1">
          <mxGeometry x="37.5" y="7.5" width="60" height="30" as="geometry" />
        </mxCell>
        <mxCell id="jVJLE2luBFFKWMK33xKC-16" value="" style="group" vertex="1" connectable="0" parent="1">
          <mxGeometry x="449.67" y="-770" width="105" height="45" as="geometry" />
        </mxCell>
        <mxCell id="t3G3vY_G053MM_05NjWp-9" value="" style="rounded=1;whiteSpace=wrap;html=1;" parent="jVJLE2luBFFKWMK33xKC-16" vertex="1">
          <mxGeometry width="105" height="45" as="geometry" />
        </mxCell>
        <mxCell id="t3G3vY_G053MM_05NjWp-16" value="" style="shape=image;verticalLabelPosition=bottom;labelBackgroundColor=#ffffff;verticalAlign=top;aspect=fixed;imageAspect=0;image=data:image/svg+xml,PHN2ZyB4bWxuczpjYz0iaHR0cDovL2NyZWF0aXZlY29tbW9ucy5vcmcvbnMjIiB4bWxuczpkYz0iaHR0cDovL3B1cmwub3JnL2RjL2VsZW1lbnRzLzEuMS8iIHhtbG5zOmlua3NjYXBlPSJodHRwOi8vd3d3Lmlua3NjYXBlLm9yZy9uYW1lc3BhY2VzL2lua3NjYXBlIiB4bWxuczpyZGY9Imh0dHA6Ly93d3cudzMub3JnLzE5OTkvMDIvMjItcmRmLXN5bnRheC1ucyMiIHhtbG5zOnNvZGlwb2RpPSJodHRwOi8vc29kaXBvZGkuc291cmNlZm9yZ2UubmV0L0RURC9zb2RpcG9kaS0wLmR0ZCIgeG1sbnM6c3ZnPSJodHRwOi8vd3d3LnczLm9yZy8yMDAwL3N2ZyIgeG1sbnM9Imh0dHA6Ly93d3cudzMub3JnLzIwMDAvc3ZnIiB4bWxuczp4bGluaz0iaHR0cDovL3d3dy53My5vcmcvMTk5OS94bGluayIgdmVyc2lvbj0iMS4xIiBpZD0ic3ZnMjQxMjQiIHg9IjBweCIgeT0iMHB4IiB2aWV3Qm94PSIwIDAgMzIuMDUgMjkuMSIgc3R5bGU9ImVuYWJsZS1iYWNrZ3JvdW5kOm5ldyAwIDAgMzIuMDUgMjkuMTsiIHhtbDpzcGFjZT0icHJlc2VydmUiPiYjeGE7PHNvZGlwb2RpOm5hbWVkdmlldyBib3JkZXJjb2xvcj0iIzY2NjY2NiIgYm9yZGVyb3BhY2l0eT0iMSIgZml0LW1hcmdpbi1ib3R0b209IjAiIGZpdC1tYXJnaW4tbGVmdD0iMCIgZml0LW1hcmdpbi1yaWdodD0iMCIgZml0LW1hcmdpbi10b3A9IjAiIGdyaWR0b2xlcmFuY2U9IjEwIiBndWlkZXRvbGVyYW5jZT0iMTAiIGlkPSJuYW1lZHZpZXcyNDEyNiIgaW5rc2NhcGU6Y3VycmVudC1sYXllcj0ic3ZnMjQxMjQiIGlua3NjYXBlOmN4PSIyMC4wMTMxMzgiIGlua3NjYXBlOmN5PSItMTEuODI2ODA3IiBpbmtzY2FwZTpwYWdlb3BhY2l0eT0iMCIgaW5rc2NhcGU6cGFnZXNoYWRvdz0iMiIgaW5rc2NhcGU6d2luZG93LWhlaWdodD0iMTAxNyIgaW5rc2NhcGU6d2luZG93LW1heGltaXplZD0iMSIgaW5rc2NhcGU6d2luZG93LXdpZHRoPSIxOTIwIiBpbmtzY2FwZTp3aW5kb3cteD0iLTgiIGlua3NjYXBlOndpbmRvdy15PSItOCIgaW5rc2NhcGU6em9vbT0iNC44NDQ2ODU3IiBvYmplY3R0b2xlcmFuY2U9IjEwIiBwYWdlY29sb3I9IiNmZmZmZmYiIHNob3dncmlkPSJmYWxzZSI+JiN4YTsJPC9zb2RpcG9kaTpuYW1lZHZpZXc+JiN4YTs8ZyBpZD0iZzI0MTIyIiB0cmFuc2Zvcm09InRyYW5zbGF0ZSgtMTcuNDUxNTI4LC0wLjc0ODA4NSkiPiYjeGE7CTx0aXRsZSBpZD0idGl0bGUyNDA4MyI+UGFnZS0xPC90aXRsZT4mI3hhOwk8ZyBpZD0iZ3JvdXA2MjAtMSIgdHJhbnNmb3JtPSJ0cmFuc2xhdGUoMTcuNDQ5OCwtMzcuMjU1NSkiPiYjeGE7CQk8dGl0bGUgaWQ9InRpdGxlMjQwODUiPkF1dG9tYXRpb248L3RpdGxlPiYjeGE7CQk8ZyBpZD0ic2hhcGU2MjEtMiIgdHJhbnNmb3JtPSJyb3RhdGUoMTAsNS42MDAzMTE0LDYxLjc1NjAxMSkiPiYjeGE7CQkJPHRpdGxlIGlkPSJ0aXRsZTI0MDg3Ij5wYXRoMTk0MjwvdGl0bGU+JiN4YTsJCQk8cGF0aCBpZD0icGF0aDI0MDg5IiBpbmtzY2FwZTpjb25uZWN0b3ItY3VydmF0dXJlPSIwIiBzdHlsZT0iZmlsbC1ydWxlOmV2ZW5vZGQ7Y2xpcC1ydWxlOmV2ZW5vZGQ7ZmlsbDojRkZCOTAwOyIgZD0iICAgICBNNS40MSw2Ni44OWMwLjA2LDAuMTQsMC4yLDAuMjMsMC4zNSwwLjIybDAuNzUtMC4wOGMwLjE4LTAuMDUsMC4zLTAuMjIsMC4yOC0wLjQxTDYuNzYsNjUuN2MtMC4wNC0wLjI0LDAtMC40NSwwLjcxLTAuODcgICAgIGMwLjItMC4xLDAuNDQtMC4wOSwwLjYzLDAuMDRsMC44OCwwLjQ5YzAuMTMsMC4wNCwwLjI4LDAuMDEsMC4zOS0wLjA3bDAuNS0wLjY1YzAuMDctMC4xNiwwLjAyLTAuMzYtMC4xMy0wLjQ2bC0wLjY5LTAuNjcgICAgIGMtMC4xOC0wLjEzLTAuMjMtMC4zNy0wLjEzLTAuNTdjMCwwLDAuMi0wLjkxLDAuNTktMC45OWwwLjg1LTAuMTljMC4xNi0wLjA3LDAuMjctMC4yMywwLjI4LTAuNDFsLTAuMTQtMC44ICAgICBjLTAuMDMtMC4xNS0wLjE3LTAuMjUtMC4zMy0wLjIzYzAsMCwwLDAtMC4wMSwwbC0wLjkyLDAuMDNDOSw2MC4zOSw4LjQ4LDU5Ljc0LDguMzcsNTkuNjNjLTAuMDktMC4yMi0wLjA5LTAuNDcsMC0wLjY5bDAuNS0wLjc1ICAgICBjMC4xLTAuMTcsMC4wNy0wLjM4LTAuMDctMC41MWwtMC42NS0wLjM5Yy0wLjEzLTAuMTEtMC4zMi0wLjExLTAuNDYsMGwtMC42LDAuNzZDNi45NCw1OC4yMyw2LjYzLDU4LjQsNiw1OC4xNCAgICAgYzAsMC0wLjQ2LTAuMjgtMC41NC0wLjUxbC0wLjE4LTAuOTdjLTAuMDYtMC4xNC0wLjItMC4yMy0wLjM1LTAuMjJsLTAuODEsMC4xNGMtMC4xNSwwLjA0LTAuMjQsMC4xOS0wLjIxLDAuMzRjMCwwLDAsMCwwLDAgICAgIGwtMC4wNSwxLjAyYzAsMC4zNC0wLjU2LDAuNzEtMC42NywwLjgyYy0wLjIxLDAuMTQtMC40OCwwLjE0LTAuNjksMGwtMC44MS0wLjU1Yy0wLjE3LTAuMDUtMC4zNCwwLTAuNDYsMC4xM2wtMC41MSwwLjY1ICAgICBjLTAuMDQsMC4xNiwwLjAxLDAuMzQsMC4xMywwLjQ2bDAuNzEsMC42NmMwLjQxLDAuMzEsMC4xNywwLjc2LDAuMDgsMS4wOWMtMC4wMywwLjE3LTAuMSwwLjM1LTAuNSwwLjQybC0wLjkyLDAuMjUgICAgIGMtMC4xNCwwLjA2LTAuMjMsMC4yLTAuMjIsMC4zNWwwLjE0LDAuODFjMC4wMywwLjE0LDAuMTUsMC4yNSwwLjI5LDAuMjhsMC45OC0wLjA5YzAuMzQsMCwwLjQ1LDAuMSwwLjUyLDAuMjggICAgIGMwLjExLDAuMTYsMC4yMSwwLjMzLDAuMywwLjVjMC4xNiwwLjE3LDAuMTksMC40MiwwLjA3LDAuNjJsLTAuNTQsMC44MWMtMC4wNSwwLjE3LDAsMC4zNCwwLjEzLDAuNDZsMC41OSwwLjQ2ICAgICBjMC4xMywwLjExLDAuMzIsMC4xMSwwLjQ2LDBsMC42MS0wLjc2YzAuMTUtMC4xOCwwLjQtMC4yNSwwLjYyLTAuMThsMC41MiwwLjE1YzAuMjMsMCwwLjM1LDAuMTEsMC40NiwwLjQ2bDAuMjUsMC45Mkw1LjQxLDY2Ljg5ICAgICB6IE03LjI2LDYxLjU2YzAuMTIsMS4wNi0wLjYsMi4wNC0xLjY2LDIuMjJjLTEuMDIsMC4yLTItMC40Ni0yLjItMS40OGMwLDAsMCwwLDAsMGMwLTAuMDYtMC4wMS0wLjEyLTAuMDItMC4xOCAgICAgYy0wLjE0LTEuMDMsMC41Ny0xLjk5LDEuNi0yLjE2YzEuMDYtMC4yMSwyLjA4LDAuNDgsMi4yOSwxLjU0YzAsMCwwLDAsMCwwLjAxdjAuMDRMNy4yNiw2MS41NnoiLz4mI3hhOwkJCTxwYXRoIGlkPSJwYXRoMjQwOTEiIGlua3NjYXBlOmNvbm5lY3Rvci1jdXJ2YXR1cmU9IjAiIHN0eWxlPSJmaWxsOm5vbmU7IiBkPSJNNS40MSw2Ni44OWMwLjA2LDAuMTQsMC4yLDAuMjMsMC4zNSwwLjIyICAgICBsMC43NS0wLjA4YzAuMTgtMC4wNSwwLjMtMC4yMiwwLjI4LTAuNDFMNi43Niw2NS43Yy0wLjA0LTAuMjQsMC0wLjQ1LDAuNzEtMC44N2MwLjItMC4xLDAuNDQtMC4wOSwwLjYzLDAuMDRsMC44OCwwLjQ5ICAgICBjMC4xMywwLjA0LDAuMjgsMC4wMSwwLjM5LTAuMDdsMC41LTAuNjVjMC4wNy0wLjE2LDAuMDItMC4zNi0wLjEzLTAuNDZsLTAuNjktMC42N2MtMC4xOC0wLjEzLTAuMjMtMC4zNy0wLjEzLTAuNTcgICAgIGMwLDAsMC4yLTAuOTEsMC41OS0wLjk5bDAuODUtMC4xOWMwLjE2LTAuMDcsMC4yNy0wLjIzLDAuMjgtMC40MWwtMC4xNC0wLjhjLTAuMDMtMC4xNS0wLjE3LTAuMjUtMC4zMy0wLjIzYzAsMCwwLDAtMC4wMSwwICAgICBsLTAuOTIsMC4wM0M5LDYwLjM5LDguNDgsNTkuNzQsOC4zNyw1OS42M2MtMC4wOS0wLjIyLTAuMDktMC40NywwLTAuNjlsMC41LTAuNzVjMC4xLTAuMTcsMC4wNy0wLjM4LTAuMDctMC41MWwtMC42NS0wLjM5ICAgICBjLTAuMTMtMC4xMS0wLjMyLTAuMTEtMC40NiwwbC0wLjYsMC43NkM2Ljk0LDU4LjIzLDYuNjMsNTguNCw2LDU4LjE0YzAsMC0wLjQ2LTAuMjgtMC41NC0wLjUxbC0wLjE4LTAuOTcgICAgIGMtMC4wNi0wLjE0LTAuMi0wLjIzLTAuMzUtMC4yMmwtMC44MSwwLjE0Yy0wLjE1LDAuMDQtMC4yNCwwLjE5LTAuMjEsMC4zNGMwLDAsMCwwLDAsMGwtMC4wNSwxLjAyYzAsMC4zNC0wLjU2LDAuNzEtMC42NywwLjgyICAgICBjLTAuMjEsMC4xNC0wLjQ4LDAuMTQtMC42OSwwbC0wLjgxLTAuNTVjLTAuMTctMC4wNS0wLjM0LDAtMC40NiwwLjEzbC0wLjUxLDAuNjVjLTAuMDQsMC4xNiwwLjAxLDAuMzQsMC4xMywwLjQ2bDAuNzEsMC42NiAgICAgYzAuNDEsMC4zMSwwLjE3LDAuNzYsMC4wOCwxLjA5Yy0wLjAzLDAuMTctMC4xLDAuMzUtMC41LDAuNDJsLTAuOTIsMC4yNWMtMC4xNCwwLjA2LTAuMjMsMC4yLTAuMjIsMC4zNWwwLjE0LDAuODEgICAgIGMwLjAzLDAuMTQsMC4xNSwwLjI1LDAuMjksMC4yOGwwLjk4LTAuMDljMC4zNCwwLDAuNDUsMC4xLDAuNTIsMC4yOGMwLjExLDAuMTYsMC4yMSwwLjMzLDAuMywwLjVjMC4xNiwwLjE3LDAuMTksMC40MiwwLjA3LDAuNjIgICAgIGwtMC41NCwwLjgxYy0wLjA1LDAuMTcsMCwwLjM0LDAuMTMsMC40NmwwLjU5LDAuNDZjMC4xMywwLjExLDAuMzIsMC4xMSwwLjQ2LDBsMC42MS0wLjc2YzAuMTUtMC4xOCwwLjQtMC4yNSwwLjYyLTAuMTggICAgIGwwLjUyLDAuMTVjMC4yMywwLDAuMzUsMC4xMSwwLjQ2LDAuNDZsMC4yNSwwLjkyIE03LjI2LDYxLjU2YzAuMTIsMS4wNi0wLjYsMi4wNC0xLjY2LDIuMjJjLTEuMDIsMC4yLTItMC40Ni0yLjItMS40OCAgICAgYzAsMCwwLDAsMCwwYzAtMC4wNi0wLjAxLTAuMTItMC4wMi0wLjE4Yy0wLjE0LTEuMDMsMC41Ny0xLjk5LDEuNi0yLjE2YzEuMDYtMC4yMSwyLjA4LDAuNDgsMi4yOSwxLjU0YzAsMCwwLDAsMCwwLjAxdjAuMDQiLz4mI3hhOwkJPC9nPiYjeGE7CQk8ZyBpZD0iZ3JvdXA2MjItNSIgdHJhbnNmb3JtPSJ0cmFuc2xhdGUoMC4xNDc2MzUsLTAuMjA4OTE1KSI+JiN4YTsJCQk8dGl0bGUgaWQ9InRpdGxlMjQwOTQiPkF1dG9tYXRpb248L3RpdGxlPiYjeGE7CQkJPGcgaWQ9Imdyb3VwNjIzLTYiIHRyYW5zZm9ybT0idHJhbnNsYXRlKDcuNDMzMDYsLTIuODMyMzgpIj4mI3hhOwkJCQk8dGl0bGUgaWQ9InRpdGxlMjQwOTYiPlNoZWV0LjYyMzwvdGl0bGU+JiN4YTsJCQkJPGcgaWQ9InNoYXBlNjI0LTciPiYjeGE7CQkJCQk8dGl0bGUgaWQ9InRpdGxlMjQwOTgiPlNoZWV0LjYyNDwvdGl0bGU+JiN4YTsJCQkJCTxwYXRoIGlkPSJwYXRoMjQxMDAiIGlua3NjYXBlOmNvbm5lY3Rvci1jdXJ2YXR1cmU9IjAiIHN0eWxlPSJmaWxsLXJ1bGU6ZXZlbm9kZDtjbGlwLXJ1bGU6ZXZlbm9kZDtmaWxsOiM1NTZBOEE7IiBkPSIgICAgICAgTTIyLjEsNTQuODZjMC0wLjI0LTAuMDItMC40Ni0wLjAzLTAuNzFsMi40LTEuMzNjLTAuMTMtMC44LTAuMzMtMS41OC0wLjYyLTIuMzFsLTIuNzQsMC4wNGMtMC4yMi0wLjQyLTAuNDUtMC44NC0wLjcxLTEuMjMgICAgICAgbDEuNDItMi4zN2MtMC41Mi0wLjYxLTEuMDgtMS4xOC0xLjY5LTEuNjhsLTEuNCwwLjgzbC0wLjU4LDAuODdsLTEuMjcsMS44N2MxLjgsMS40LDIuOTUsMy41NiwyLjk1LDYuMDIgICAgICAgYzAsNC4yLTMuNCw3LjYxLTcuNiw3LjYxcy03LjYxLTMuNDEtNy42MS03LjYxYzAtMy43NywyLjczLTYuODgsNi4zMi03LjQ5bDAuNTgtMi4zNWwtMS4zNC0yLjQxICAgICAgIGMtMC44LDAuMTMtMS41NiwwLjM1LTIuMjksMC42MmwwLjA0LDIuNzZjLTAuNDIsMC4yLTAuODQsMC40My0xLjIzLDAuNjlsLTIuMzctMS40Yy0wLjYsMC40OS0xLjE2LDEuMDYtMS42OCwxLjY4bDEuNDIsMi4zNiAgICAgICBjLTAuMjcsMC4zOS0wLjQ5LDAuODEtMC43LDEuMjRsLTIuNzYtMC4wNUMwLjM0LDUxLjI1LDAuMTMsNTIuMDIsMCw1Mi44MmwyLjQsMS4zNGMtMC4wMiwwLjI0LTAuMDMsMC40Ny0wLjAzLDAuNyAgICAgICBjMCwwLjI0LDAuMDEsMC40NywwLjAzLDAuNzFMMCw1Ni45YzAuMTMsMC44LDAuMzQsMS41OCwwLjYyLDIuMzJsMi43NS0wLjA2YzAuMjEsMC40NCwwLjQzLDAuODUsMC43LDEuMjRsLTEuNDIsMi4zNyAgICAgICBjMC41MiwwLjYxLDEuMDgsMS4xOCwxLjY4LDEuNjlsMi4zNy0xLjQyYzAuMzksMC4yNywwLjgxLDAuNSwxLjIzLDAuN0w3Ljg5LDY2LjVjMC43NCwwLjI4LDEuNDksMC40OCwyLjI5LDAuNjFsMS4zNS0yLjQxICAgICAgIGMwLjIzLDAuMDMsMC40NSwwLjA0LDAuNywwLjA0YzAuMjQsMCwwLjQ3LTAuMDIsMC43LTAuMDRsMS4zMywyLjQxYzAuOC0wLjEzLDEuNTgtMC4zNCwyLjMxLTAuNjFsLTAuMDQtMi43NiAgICAgICBjMC40My0wLjIsMC44NC0wLjQ0LDEuMjQtMC43bDIuMzYsMS40MmMwLjYtMC41MSwxLjE3LTEuMDgsMS42OS0xLjY5TDIwLjQsNjAuNGMwLjI2LTAuMzksMC40OS0wLjgxLDAuNy0xLjI0bDIuNzUsMC4wNiAgICAgICBjMC4yOC0wLjc0LDAuNDgtMS41MiwwLjYyLTIuMzJsLTIuNDEtMS4zM0MyMi4wOCw1NS4zMiwyMi4xLDU1LjA5LDIyLjEsNTQuODZ6Ii8+JiN4YTsJCQkJPC9nPiYjeGE7CQkJPC9nPiYjeGE7CQkJPGcgaWQ9Imdyb3VwNjI1LTkiIHRyYW5zZm9ybT0idHJhbnNsYXRlKDguOTIzNjUsLTguMzYyMTMpIj4mI3hhOwkJCQk8dGl0bGUgaWQ9InRpdGxlMjQxMDQiPlNoZWV0LjYyNTwvdGl0bGU+JiN4YTsJCQkJPGcgaWQ9InNoYXBlNjI2LTEwIj4mI3hhOwkJCQkJPHRpdGxlIGlkPSJ0aXRsZTI0MTA2Ij5TaGVldC42MjY8L3RpdGxlPiYjeGE7CQkJCQk8cGF0aCBpZD0icGF0aDI0MTA4IiBpbmtzY2FwZTpjb25uZWN0b3ItY3VydmF0dXJlPSIwIiBzdHlsZT0iZmlsbC1ydWxlOmV2ZW5vZGQ7Y2xpcC1ydWxlOmV2ZW5vZGQ7ZmlsbDojNTU2QThBOyIgZD0iTTAsNjYuNiAgICAgICBjMC4xLDAuMTcsMC4yMSwwLjM0LDAuMzIsMC41MWwwLjA1LTAuMTNMMCw2Ni42eiIvPiYjeGE7CQkJCTwvZz4mI3hhOwkJCTwvZz4mI3hhOwkJCTxnIGlkPSJncm91cDYyNy0xMiIgdHJhbnNmb3JtPSJ0cmFuc2xhdGUoMTYuOTYwMywtOS40Mjc1KSI+JiN4YTsJCQkJPHRpdGxlIGlkPSJ0aXRsZTI0MTEyIj5TaGVldC42Mjc8L3RpdGxlPiYjeGE7CQkJCTxnIGlkPSJzaGFwZTYyOC0xMyI+JiN4YTsJCQkJCTx0aXRsZSBpZD0idGl0bGUyNDExNCI+U2hlZXQuNjI4PC90aXRsZT4mI3hhOwkJCQkJPHBhdGggaWQ9InBhdGgyNDExNiIgaW5rc2NhcGU6Y29ubmVjdG9yLWN1cnZhdHVyZT0iMCIgc3R5bGU9ImZpbGwtcnVsZTpldmVub2RkO2NsaXAtcnVsZTpldmVub2RkO2ZpbGw6Izk5NkRBRDsiIGQ9IiAgICAgICBNNC4zLDQ3LjY0bC0wLjQ2LDEuNDRMMy4wNSw1MS42bC0wLjM4LDEuMmwtMC4zMywxLjA2bC0yLjI5LDcuMjhDMCw2MS4yOCwwLjA3LDYxLjQsMC4yMyw2MS40aDIuMTEgICAgICAgYzAuMDcsMCwwLjEzLDAuMDEsMC4xNSwwLjA1YzAuMDUsMC4wNSwwLjA2LDAuMTIsMC4wNCwwLjJsLTIuMTksNS4yOWMtMC4wNiwwLjE1LTAuMDIsMC4xNywwLjA4LDAuMDVsNi45MS03LjgzICAgICAgIGMwLjExLTAuMTIsMC4wNi0wLjIxLTAuMDktMC4yMWwtMi4yNywwLjAxbC0wLjQxLDAuMDFjLTAuMTUsMC0wLjIzLTAuMTEtMC4xNS0wLjI0bDIuMTUtMy44NGwwLjUzLTAuOTFsMC41OC0xLjA2bDEuMjUtMi4yMiAgICAgICBsMC43Mi0xLjNDOC4wMyw0OC40Nyw2LjIzLDQ3Ljg2LDQuMyw0Ny42NHoiLz4mI3hhOwkJCQk8L2c+JiN4YTsJCQk8L2c+JiN4YTsJCTwvZz4mI3hhOwk8L2c+JiN4YTs8L2c+JiN4YTs8L3N2Zz4=;" parent="jVJLE2luBFFKWMK33xKC-16" vertex="1">
          <mxGeometry x="5.360000000000014" y="8.5" width="32" height="29" as="geometry" />
        </mxCell>
        <mxCell id="t3G3vY_G053MM_05NjWp-17" value="Filter Birds" style="text;html=1;align=center;verticalAlign=middle;whiteSpace=wrap;rounded=0;" parent="jVJLE2luBFFKWMK33xKC-16" vertex="1">
          <mxGeometry x="41.860000000000014" y="7.5" width="60" height="30" as="geometry" />
        </mxCell>
        <mxCell id="jVJLE2luBFFKWMK33xKC-17" value="" style="group" vertex="1" connectable="0" parent="1">
          <mxGeometry x="449.67" y="-670" width="105" height="45" as="geometry" />
        </mxCell>
        <mxCell id="t3G3vY_G053MM_05NjWp-8" value="" style="rounded=1;whiteSpace=wrap;html=1;" parent="jVJLE2luBFFKWMK33xKC-17" vertex="1">
          <mxGeometry width="105" height="45" as="geometry" />
        </mxCell>
        <mxCell id="t3G3vY_G053MM_05NjWp-10" value="" style="image;html=1;image=img/lib/clip_art/computers/Database_Add_128x128.png" parent="jVJLE2luBFFKWMK33xKC-17" vertex="1">
          <mxGeometry x="7.860000000000014" y="7.5" width="30" height="30" as="geometry" />
        </mxCell>
        <mxCell id="t3G3vY_G053MM_05NjWp-11" value="Add Bird Sighting" style="text;html=1;align=center;verticalAlign=middle;whiteSpace=wrap;rounded=0;" parent="jVJLE2luBFFKWMK33xKC-17" vertex="1">
          <mxGeometry x="37.860000000000014" y="7.5" width="60" height="30" as="geometry" />
        </mxCell>
        <mxCell id="jVJLE2luBFFKWMK33xKC-18" value="" style="group" vertex="1" connectable="0" parent="1">
          <mxGeometry x="270" y="-670" width="105" height="45" as="geometry" />
        </mxCell>
        <mxCell id="t3G3vY_G053MM_05NjWp-4" value="" style="rounded=1;whiteSpace=wrap;html=1;" parent="jVJLE2luBFFKWMK33xKC-18" vertex="1">
          <mxGeometry width="105" height="45" as="geometry" />
        </mxCell>
        <mxCell id="JBRybCOSU0B7M9foIgmK-42" value="Geo Data" style="text;html=1;align=center;verticalAlign=middle;whiteSpace=wrap;rounded=0;" parent="jVJLE2luBFFKWMK33xKC-18" vertex="1">
          <mxGeometry x="37.360000000000014" y="7.5" width="60" height="30" as="geometry" />
        </mxCell>
        <mxCell id="JBRybCOSU0B7M9foIgmK-30" value="" style="sketch=0;outlineConnect=0;fontColor=#232F3E;gradientColor=none;fillColor=#DD344C;strokeColor=none;dashed=0;verticalLabelPosition=bottom;verticalAlign=top;align=center;html=1;fontSize=12;fontStyle=0;aspect=fixed;shape=mxgraph.aws4.location_service_map;" parent="jVJLE2luBFFKWMK33xKC-18" vertex="1">
          <mxGeometry x="7.860000000000014" y="7.5" width="30" height="30" as="geometry" />
        </mxCell>
        <mxCell id="jVJLE2luBFFKWMK33xKC-22" value="Event Channels" style="text;html=1;align=center;verticalAlign=middle;whiteSpace=wrap;rounded=0;" vertex="1" parent="1">
          <mxGeometry x="430" y="-460" width="60" height="30" as="geometry" />
        </mxCell>
        <mxCell id="jVJLE2luBFFKWMK33xKC-23" value="Event Queue" style="text;html=1;align=center;verticalAlign=middle;whiteSpace=wrap;rounded=0;" vertex="1" parent="1">
          <mxGeometry x="438" y="-562.25" width="60" height="30" as="geometry" />
        </mxCell>
        <mxCell id="jVJLE2luBFFKWMK33xKC-24" value="" style="rounded=1;whiteSpace=wrap;html=1;arcSize=3;" vertex="1" parent="1">
          <mxGeometry x="29.84" y="40" width="773" height="590" as="geometry" />
        </mxCell>
        <mxCell id="jVJLE2luBFFKWMK33xKC-26" value="&lt;font style=&quot;font-size: 18px;&quot;&gt;Online Model Domains&lt;/font&gt;" style="text;html=1;align=center;verticalAlign=middle;whiteSpace=wrap;rounded=0;" vertex="1" parent="1">
          <mxGeometry x="197" y="10" width="189" height="30" as="geometry" />
        </mxCell>
        <mxCell id="jVJLE2luBFFKWMK33xKC-28" value="" style="shape=ext;double=1;rounded=0;whiteSpace=wrap;html=1;" vertex="1" parent="1">
          <mxGeometry x="49.25" y="60" width="230.75" height="550" as="geometry" />
        </mxCell>
        <mxCell id="jVJLE2luBFFKWMK33xKC-39" style="edgeStyle=orthogonalEdgeStyle;rounded=0;orthogonalLoop=1;jettySize=auto;html=1;entryX=0.5;entryY=0;entryDx=0;entryDy=0;" edge="1" parent="1" source="jVJLE2luBFFKWMK33xKC-30" target="jVJLE2luBFFKWMK33xKC-37">
          <mxGeometry relative="1" as="geometry">
            <Array as="points" />
          </mxGeometry>
        </mxCell>
        <mxCell id="jVJLE2luBFFKWMK33xKC-40" style="edgeStyle=orthogonalEdgeStyle;rounded=0;orthogonalLoop=1;jettySize=auto;html=1;exitX=1;exitY=0.5;exitDx=0;exitDy=0;exitPerimeter=0;entryX=0.5;entryY=0;entryDx=0;entryDy=0;" edge="1" parent="1" source="jVJLE2luBFFKWMK33xKC-30" target="jVJLE2luBFFKWMK33xKC-38">
          <mxGeometry relative="1" as="geometry" />
        </mxCell>
        <mxCell id="jVJLE2luBFFKWMK33xKC-41" style="edgeStyle=orthogonalEdgeStyle;rounded=0;orthogonalLoop=1;jettySize=auto;html=1;exitX=1;exitY=0.5;exitDx=0;exitDy=0;exitPerimeter=0;entryX=0.5;entryY=0;entryDx=0;entryDy=0;" edge="1" parent="1" source="jVJLE2luBFFKWMK33xKC-30" target="jVJLE2luBFFKWMK33xKC-28">
          <mxGeometry relative="1" as="geometry" />
        </mxCell>
        <mxCell id="jVJLE2luBFFKWMK33xKC-30" value="" style="verticalLabelPosition=bottom;shadow=0;dashed=0;align=center;html=1;verticalAlign=top;shape=mxgraph.electrical.logic_gates.logic_gate;operation=and;direction=south;" vertex="1" parent="1">
          <mxGeometry x="384" y="-400" width="60" height="100" as="geometry" />
        </mxCell>
        <mxCell id="jVJLE2luBFFKWMK33xKC-31" value="" style="endArrow=none;html=1;rounded=0;entryX=0.5;entryY=1;entryDx=0;entryDy=0;entryPerimeter=0;" edge="1" parent="1">
          <mxGeometry width="50" height="50" relative="1" as="geometry">
            <mxPoint x="399" y="-380" as="sourcePoint" />
            <mxPoint x="412.9949999999999" y="-420" as="targetPoint" />
            <Array as="points">
              <mxPoint x="399" y="-400" />
            </Array>
          </mxGeometry>
        </mxCell>
        <mxCell id="jVJLE2luBFFKWMK33xKC-32" value="" style="image;aspect=fixed;perimeter=ellipsePerimeter;html=1;align=center;shadow=0;dashed=0;spacingTop=3;image=img/lib/active_directory/internet_globe.svg;" vertex="1" parent="1">
          <mxGeometry x="535.5" y="-420" width="50" height="50" as="geometry" />
        </mxCell>
        <mxCell id="jVJLE2luBFFKWMK33xKC-33" value="" style="endArrow=none;html=1;rounded=0;exitX=0;exitY=0.25;exitDx=0;exitDy=0;exitPerimeter=0;" edge="1" parent="1" source="jVJLE2luBFFKWMK33xKC-30">
          <mxGeometry width="50" height="50" relative="1" as="geometry">
            <mxPoint x="485.5" y="-350" as="sourcePoint" />
            <mxPoint x="535.5" y="-400" as="targetPoint" />
          </mxGeometry>
        </mxCell>
        <mxCell id="jVJLE2luBFFKWMK33xKC-34" value="Internet Connection" style="text;html=1;align=center;verticalAlign=middle;whiteSpace=wrap;rounded=0;" vertex="1" parent="1">
          <mxGeometry x="530.5" y="-452" width="60" height="30" as="geometry" />
        </mxCell>
        <mxCell id="jVJLE2luBFFKWMK33xKC-35" value="AND" style="text;html=1;align=center;verticalAlign=middle;whiteSpace=wrap;rounded=0;" vertex="1" parent="1">
          <mxGeometry x="384" y="-370" width="60" height="30" as="geometry" />
        </mxCell>
        <mxCell id="jVJLE2luBFFKWMK33xKC-37" value="" style="shape=ext;double=1;rounded=0;whiteSpace=wrap;html=1;" vertex="1" parent="1">
          <mxGeometry x="299.39" y="60" width="230.75" height="550" as="geometry" />
        </mxCell>
        <mxCell id="jVJLE2luBFFKWMK33xKC-38" value="" style="shape=ext;double=1;rounded=0;whiteSpace=wrap;html=1;" vertex="1" parent="1">
          <mxGeometry x="550.5" y="60" width="230.75" height="550" as="geometry" />
        </mxCell>
        <mxCell id="jVJLE2luBFFKWMK33xKC-44" value="User" style="text;strokeColor=none;fillColor=none;html=1;fontSize=24;fontStyle=1;verticalAlign=middle;align=center;" vertex="1" parent="1">
          <mxGeometry x="364.76" y="70" width="100" height="40" as="geometry" />
        </mxCell>
        <mxCell id="jVJLE2luBFFKWMK33xKC-46" value="Southern Africa&lt;div&gt;Map&lt;/div&gt;" style="text;strokeColor=none;fillColor=none;html=1;fontSize=24;fontStyle=1;verticalAlign=middle;align=center;" vertex="1" parent="1">
          <mxGeometry x="615.87" y="76" width="100" height="40" as="geometry" />
        </mxCell>
        <mxCell id="jVJLE2luBFFKWMK33xKC-48" value="" style="rounded=1;whiteSpace=wrap;html=1;container=0;" vertex="1" parent="1">
          <mxGeometry x="270" y="-720" width="105" height="45" as="geometry" />
        </mxCell>
        <mxCell id="jVJLE2luBFFKWMK33xKC-49" value="Stay logged in" style="text;html=1;align=center;verticalAlign=middle;whiteSpace=wrap;rounded=0;container=0;" vertex="1" parent="1">
          <mxGeometry x="307.36" y="-712.5" width="60" height="30" as="geometry" />
        </mxCell>
        <mxCell id="jVJLE2luBFFKWMK33xKC-51" value="" style="outlineConnect=0;dashed=0;verticalLabelPosition=bottom;verticalAlign=top;align=center;html=1;shape=mxgraph.aws3.cache_node;fillColor=#2E73B8;gradientColor=none;" vertex="1" parent="1">
          <mxGeometry x="277.36" y="-713" width="30" height="30" as="geometry" />
        </mxCell>
        <mxCell id="jVJLE2luBFFKWMK33xKC-52" value="User Event" style="text;html=1;align=center;verticalAlign=middle;whiteSpace=wrap;rounded=0;" vertex="1" parent="1">
          <mxGeometry x="414" y="-70" width="96" height="30" as="geometry" />
        </mxCell>
        <mxCell id="jVJLE2luBFFKWMK33xKC-53" value="Map Event" style="text;html=1;align=center;verticalAlign=middle;whiteSpace=wrap;rounded=0;" vertex="1" parent="1">
          <mxGeometry x="439.5" y="-150" width="96" height="30" as="geometry" />
        </mxCell>
        <mxCell id="jVJLE2luBFFKWMK33xKC-54" value="Leveling Events" style="text;html=1;align=center;verticalAlign=middle;whiteSpace=wrap;rounded=0;" vertex="1" parent="1">
          <mxGeometry x="284.65999999999997" y="-150" width="96" height="30" as="geometry" />
        </mxCell>
        <mxCell id="jVJLE2luBFFKWMK33xKC-55" style="edgeStyle=orthogonalEdgeStyle;rounded=0;orthogonalLoop=1;jettySize=auto;html=1;entryX=0.5;entryY=1;entryDx=0;entryDy=0;" edge="1" parent="1" source="JBRybCOSU0B7M9foIgmK-12" target="jVJLE2luBFFKWMK33xKC-38">
          <mxGeometry relative="1" as="geometry" />
        </mxCell>
        <mxCell id="JBRybCOSU0B7M9foIgmK-12" value="" style="shape=image;verticalLabelPosition=bottom;labelBackgroundColor=#ffffff;verticalAlign=top;aspect=fixed;imageAspect=0;image=data:image/svg+xml,PHN2ZyB4bWxuczpldj0iaHR0cDovL3d3dy53My5vcmcvMjAwMS94bWwtZXZlbnRzIiB4bWxucz0iaHR0cDovL3d3dy53My5vcmcvMjAwMC9zdmciIHhtbG5zOnhsaW5rPSJodHRwOi8vd3d3LnczLm9yZy8xOTk5L3hsaW5rIiB2ZXJzaW9uPSIxLjEiIGlkPSJMYXllcl8xIiB4PSIwcHgiIHk9IjBweCIgdmlld0JveD0iMCAwIDU3Ljk0IDU0Ljg4IiBzdHlsZT0iZW5hYmxlLWJhY2tncm91bmQ6bmV3IDAgMCA1Ny45NCA1NC44ODsiIHhtbDpzcGFjZT0icHJlc2VydmUiPiYjeGE7PGc+JiN4YTsJPHRpdGxlPlBhZ2UtMTwvdGl0bGU+JiN4YTsJPGcgaWQ9Imdyb3VwNDM3OS0xIiB0cmFuc2Zvcm09InRyYW5zbGF0ZSgwLjc1LDApIj4mI3hhOwkJPHRpdGxlPjNyZCBQYXJ0eSBTZXJ2aWNlPC90aXRsZT4mI3hhOwkJPGcgaWQ9Imdyb3VwNDM4MC0yIiB0cmFuc2Zvcm09InRyYW5zbGF0ZSgwLC05LjE5NzI0KSI+JiN4YTsJCQk8dGl0bGU+U2VydmljZXM8L3RpdGxlPiYjeGE7CQkJPGcgaWQ9InNoYXBlNDM4MS0zIj4mI3hhOwkJCQk8dGl0bGU+U2hlZXQuNDM4MTwvdGl0bGU+JiN4YTsJCQkJPHBhdGggc3R5bGU9ImZpbGw6IzNGNTc2NTsiIGQ9Ik00MC4zNywzMy4zNmMtMC43LTMuNzktMC43LTMuNzktMC43LTMuNzljLTAuMTQtMC40Mi0wLjQyLTAuNy0wLjk5LTAuODQgICAgICBjLTUuNzctMC4yOC01Ljc3LTAuMjgtNS43Ny0wLjI4Yy0wLjI4LTAuNDItMC41Ni0wLjk5LTAuODUtMS40YzIuNjgtNS4yLDIuNjgtNS4yLDIuNjgtNS4yYzAuMjktMC40MiwwLjE1LTAuOTgtMC4yOC0xLjI2ICAgICAgYy0yLjk1LTIuMzgtMi45NS0yLjM4LTIuOTUtMi4zOGMtMC4yOS0wLjQzLTAuODUtMC40My0xLjI4LTAuMTRjLTQuNjQsMy42NC00LjY0LDMuNjQtNC42NCwzLjY0ICAgICAgYy0wLjQzLTAuMjgtMC44NC0wLjQyLTEuNDEtMC41NmMtMS40MS02LjU5LTEuNDEtNi41OS0xLjQxLTYuNTljLTAuMTQtMC40Mi0wLjU2LTAuODUtMC45OS0wLjg1Yy0zLjkzLDAtMy45MywwLTMuOTMsMCAgICAgIGMtMC40MywwLTAuODUsMC40My0wLjk5LDAuODVjLTEuNDEsNi41OS0xLjQxLDYuNTktMS40MSw2LjU5Yy0wLjU3LDAuMTQtMC45OCwwLjI4LTEuNDEsMC41NkM5LjQsMTguMDcsOS40LDE4LjA3LDkuNCwxOC4wNyAgICAgIGMtMC40My0wLjI5LTAuOTktMC4yOS0xLjI4LDBjLTIuOTUsMi41Mi0yLjk1LDIuNTItMi45NSwyLjUyYy0wLjQzLDAuMjgtMC40MywwLjg0LTAuMjgsMS4yNmMyLjY3LDUuMiwyLjY3LDUuMiwyLjY3LDUuMiAgICAgIGMtMC4yOCwwLjQxLTAuNTYsMC45OC0wLjg0LDEuNGMtNS43OCwwLjI4LTUuNzgsMC4yOC01Ljc4LDAuMjhjLTAuNTYsMC0wLjg0LDAuNDItMC45OCwwLjg0Yy0wLjcxLDMuNzktMC43MSwzLjc5LTAuNzEsMy43OSAgICAgIGMwLDAuNDIsMC4xNCwwLjk4LDAuNTcsMS4xMmM1LjQ5LDIuMjQsNS40OSwyLjI0LDUuNDksMi4yNGMwLjE0LDAuNTcsMC4xNCwxLjEzLDAuMjgsMS42OWMtNC4zNywzLjkyLTQuMzcsMy45Mi00LjM3LDMuOTIgICAgICBjLTAuMjgsMC4yOS0wLjQyLDAuODUtMC4xNCwxLjI3YzEuOTcsMy4zNiwxLjk3LDMuMzYsMS45NywzLjM2YzAuMTUsMC4yOSwwLjcxLDAuNTcsMS4xMywwLjQzYzUuNjMtMS44Miw1LjYzLTEuODIsNS42My0xLjgyICAgICAgYzAuNDMsMC40MSwwLjg1LDAuODQsMS4yOCwxLjEyYy0wLjcxLDUuNzUtMC43MSw1Ljc1LTAuNzEsNS43NWMtMC4xNCwwLjU2LDAuMTQsMC45OCwwLjU2LDEuMTJjMy42NywxLjI3LDMuNjcsMS4yNywzLjY3LDEuMjcgICAgICBjMC40MSwwLjEzLDAuOTgsMCwxLjI2LTAuMjhjMy4xLTUuMDYsMy4xLTUuMDYsMy4xLTUuMDZjMC4yOCwwLDAuNTcsMC4xNCwwLjg0LDAuMTRjMC4yOCwwLDAuNTctMC4xNCwwLjg1LTAuMTQgICAgICBjMy4xLDUuMDYsMy4xLDUuMDYsMy4xLDUuMDZjMC4yOCwwLjI4LDAuODQsMC40MSwxLjI2LDAuMjhjMy42Ni0xLjI3LDMuNjYtMS4yNywzLjY2LTEuMjdjMC40My0wLjE0LDAuNzEtMC41NiwwLjU3LTEuMTIgICAgICBjLTAuNzEtNS43NS0wLjcxLTUuNzUtMC43MS01Ljc1YzAuNDMtMC40MiwwLjg1LTAuNzEsMS4yOC0xLjEyYzUuNjIsMS44Miw1LjYyLDEuODIsNS42MiwxLjgyYzAuNDMsMC4xNCwwLjk5LTAuMTQsMS4xNC0wLjQzICAgICAgYzEuOTctMy4zNiwxLjk3LTMuMzYsMS45Ny0zLjM2YzAuMjctMC40MiwwLjEzLTAuOTgtMC4xNC0xLjI3Yy00LjM3LTMuOTItNC4zNy0zLjkyLTQuMzctMy45MmMwLjE0LTAuNTYsMC4xNC0xLjEyLDAuMjgtMS42OSAgICAgIGM1LjQ5LTIuMjQsNS40OS0yLjI0LDUuNDktMi4yNEM0MC4yNCwzNC4zNCw0MC4zNywzMy45Miw0MC4zNywzMy4zNnogTTI3Ljk4LDM1LjA0YzAsMi4yNS0wLjk5LDQuMjEtMi4zOSw1Ljc2ICAgICAgYy0xLjU1LDEuNC0zLjUyLDIuMzgtNS43OCwyLjM4Yy0yLjI1LDAtNC4yMi0wLjk4LTUuNzctMi4zOGMtMS40MS0xLjU1LTIuNC0zLjUxLTIuNC01Ljc2YzAtMi4yNCwwLjk5LTQuMzUsMi40LTUuNzUgICAgICBjMS41NS0xLjU1LDMuNTItMi4zOSw1Ljc3LTIuMzljMi4yNiwwLDQuMjMsMC44NCw1Ljc4LDIuMzlDMjYuOTksMzAuNjksMjcuOTgsMzIuOCwyNy45OCwzNS4wNHoiLz4mI3hhOwkJCTwvZz4mI3hhOwkJCTxnIGlkPSJzaGFwZTQzODItNSIgdHJhbnNmb3JtPSJ0cmFuc2xhdGUoMTYuNzU3NSwtMTYuMDI0OCkiPiYjeGE7CQkJCTx0aXRsZT5TaGVldC40MzgyPC90aXRsZT4mI3hhOwkJCQk8cGF0aCBzdHlsZT0iZmlsbDojM0Y1NzY1OyIgZD0iTS0wLjc1LDUxLjA4YzAtMi4wOSwxLjcxLTMuOCwzLjgtMy44YzIuMSwwLDMuODEsMS43MSwzLjgxLDMuOGMwLDIuMS0xLjcxLDMuOC0zLjgxLDMuOCAgICAgIEMwLjk2LDU0Ljg4LTAuNzUsNTMuMTgtMC43NSw1MS4wOHoiLz4mI3hhOwkJCTwvZz4mI3hhOwkJCTxnIGlkPSJzaGFwZTQzODMtNyIgdHJhbnNmb3JtPSJ0cmFuc2xhdGUoMzUuNDY4MiwtMjMuMjA3NikiPiYjeGE7CQkJCTx0aXRsZT5TaGVldC40MzgzPC90aXRsZT4mI3hhOwkJCQk8cGF0aCBzdHlsZT0iZmlsbDojM0Y1NzY1OyIgZD0iTTE3LjQ0LDQ1LjE5YzAuMTQtMC40MiwwLjI4LTAuOTgsMC4yOC0xLjU1YzAtMC40Mi0wLjE0LTAuOTgtMC4yOC0xLjQgICAgICBjMi4yNi0yLjExLDIuMjYtMi4xMSwyLjI2LTIuMTFjMC4yOC0wLjE0LDAuMjgtMC40MiwwLjI4LTAuN2MwLTAuMTQsMC0wLjQyLDAtMC41NkMxOSwzNy4xOCwxOSwzNy4xOCwxOSwzNy4xOCAgICAgIGMtMC4yOS0wLjI4LTAuNTctMC40Mi0wLjk5LTAuNDJjMCwwLTAuMTUsMC0wLjI5LDBjLTIuODIsMC44NS0yLjgyLDAuODUtMi44MiwwLjg1Yy0wLjg0LTAuNTctMS42OS0xLjEzLTIuNjgtMS40MSAgICAgIGMtMC41Ni0yLjk1LTAuNTYtMi45NS0wLjU2LTIuOTVjLTAuMTQtMC40Mi0wLjU2LTAuODUtMC45OS0wLjg1Yy0xLjk3LDAtMS45NywwLTEuOTcsMGMtMC41NiwwLTAuODUsMC40My0wLjk5LDAuODUgICAgICBjLTAuNywyLjk1LTAuNywyLjk1LTAuNywyLjk1Yy0wLjk5LDAuMjgtMS44NCwwLjg0LTIuNTQsMS41NWMtMi45Ni0wLjk5LTIuOTYtMC45OS0yLjk2LTAuOTljLTAuMTQsMC0wLjE0LDAtMC4yOCwwICAgICAgYy0wLjI4LDAtMC43MSwwLjE0LTAuODUsMC40MmMtMC45OSwxLjY5LTAuOTksMS42OS0wLjk5LDEuNjljLTAuMTQsMC4xNC0wLjE0LDAuNDItMC4xNCwwLjU2YzAsMC4yOCwwLjE0LDAuNTYsMC4yOCwwLjcgICAgICBjMi40LDIuMTEsMi40LDIuMTEsMi40LDIuMTFjLTAuMTQsMC40Mi0wLjI4LDAuOTgtMC4yOCwxLjRjMCwwLjU3LDAuMTQsMC45OSwwLjI4LDEuNTVjLTIuNCwyLjExLTIuNCwyLjExLTIuNCwyLjExICAgICAgYy0wLjE0LDAuMTQtMC4yOCwwLjQyLTAuMjgsMC43YzAsMC4xNCwwLDAuMjgsMC4xNCwwLjQyYzAuOTksMS42OSwwLjk5LDEuNjksMC45OSwxLjY5YzAuMTQsMC40MiwwLjU3LDAuNTUsMC44NSwwLjU1ICAgICAgYzAuMTQsMCwwLjE0LDAsMC4yOCwwYzIuOTYtMC45OCwyLjk2LTAuOTgsMi45Ni0wLjk4YzAuNywwLjU3LDEuNTUsMS4xMiwyLjU0LDEuNDFjMC43LDMuMDksMC43LDMuMDksMC43LDMuMDkgICAgICBjMC4xNCwwLjQyLDAuNDMsMC43LDAuOTksMC43YzEuOTcsMCwxLjk3LDAsMS45NywwYzAuNDMsMCwwLjg1LTAuMjgsMC45OS0wLjdjMC41Ni0yLjk1LDAuNTYtMi45NSwwLjU2LTIuOTUgICAgICBjMC45OS0wLjQzLDEuODQtMC44NCwyLjY4LTEuNTVjMi44MiwwLjk4LDIuODIsMC45OCwyLjgyLDAuOThjMC4xNCwwLDAuMjksMCwwLjI5LDBjMC40MiwwLDAuNy0wLjEzLDAuOTktMC41NSAgICAgIGMwLjk4LTEuNjksMC45OC0xLjY5LDAuOTgtMS42OWMwLTAuMTQsMC4xNC0wLjI4LDAtMC40MmMwLjE0LTAuMjgsMC0wLjU2LTAuMjgtMC43TDE3LjQ0LDQ1LjE5eiBNMTIuNzksNDMuNjQgICAgICBjMCwxLjY5LTEuNDEsMy4wOS0zLjExLDMuMDljLTEuNjksMC0zLjA5LTEuNC0zLjA5LTMuMDljMC0xLjY4LDEuNC0zLjA4LDMuMDktMy4wOEMxMS4zOCw0MC41NiwxMi43OSw0MS45NiwxMi43OSw0My42NHoiLz4mI3hhOwkJCTwvZz4mI3hhOwkJPC9nPiYjeGE7CQk8ZyBpZD0ic2hhcGU0Mzg0LTkiIHRyYW5zZm9ybT0idHJhbnNsYXRlKDI5LjgwODMsLTcuMTA1NDNFLTE1KSI+JiN4YTsJCQk8dGl0bGU+U2hlZXQuNDM4NDwvdGl0bGU+JiN4YTsJCQk8cGF0aCBzdHlsZT0iZmlsbDojRkZGRkZGOyIgZD0iTTMuODEsNTQuODhjLTIuNTIsMC00LjU2LTIuMDQtNC41Ni00LjU1VjI5LjFjMC0yLjQ2LDIuMDQtNC41NCw0LjU2LTQuNTRIMjUuMSAgICAgYzIuNTIsMCw0LjU2LDIuMDgsNC41Niw0LjU0djIxLjIzYzAsMi41MS0yLjA0LDQuNTUtNC41Niw0LjU1SDMuODF6Ii8+JiN4YTsJCTwvZz4mI3hhOwkJPGcgaWQ9InNoYXBlNDM4NS0xMSIgdHJhbnNmb3JtPSJ0cmFuc2xhdGUoMzIuMDg5LC0yLjI3NDExKSI+JiN4YTsJCQk8dGl0bGU+U2hlZXQuNDM4NTwvdGl0bGU+JiN4YTsJCQk8cGF0aCBzdHlsZT0iZmlsbDojM0Y1NzY1OyIgZD0iTTI1LjEsNTIuNmMwLDEuMzMtMSwyLjI4LTIuMjgsMi4yOEgxLjUzYy0xLjI4LDAtMi4yOC0wLjk1LTIuMjgtMi4yOFYzMS4zOCAgICAgYzAtMS4yOCwxLTIuMjgsMi4yOC0yLjI4aDIxLjI5YzEuMjgsMCwyLjI4LDEsMi4yOCwyLjI4VjUyLjZ6Ii8+JiN4YTsJCTwvZz4mI3hhOwkJPGcgaWQ9InNoYXBlNDM4Ni0xMyIgdHJhbnNmb3JtPSJ0cmFuc2xhdGUoMzcuNTUzMiwtOC4zMzg0MSkiPiYjeGE7CQkJPHRpdGxlPlNoZWV0LjQzODY8L3RpdGxlPiYjeGE7CQkJPHBhdGggc3R5bGU9ImZpbGw6I0ZGRkZGRjsiIGQ9Ik02LjA0LDUzLjgzYy0wLjg1LDAuNjctMi4wOSwxLjA1LTMuNjEsMS4wNWMtMS4yOCwwLTIuMzItMC4xOS0zLjE4LTAuNTd2LTIuNDcgICAgIGMwLjg2LDAuNjIsMS44NSwwLjk1LDIuOTksMC45NWMwLjY3LDAsMS4yOS0wLjE5LDEuNjctMC40N2MwLjM4LTAuMjksMC42MS0wLjc2LDAuNjEtMS4yOGMwLTAuNjItMC4yMy0xLTAuNzYtMS4yOCAgICAgYy0wLjU3LTAuMzMtMS4xNC0wLjQ3LTIuMDktMC40N0gwLjQ5di0yLjE0aDEuMDRjMS42NiwwLDIuNTItMC41MiwyLjUyLTEuNjVjMC0xLjA1LTAuNjItMS42MS0xLjktMS42MSAgICAgYy0wLjg2LDAtMS42NiwwLjMzLTIuNTIsMC44NXYtMi4yOGMwLjktMC40NywyLTAuNjYsMy4xNC0wLjY2YzEuMjgsMCwyLjMyLDAuMjgsMy4wNCwwLjljMC42NiwwLjYyLDEuMDQsMS4zNywxLjA0LDIuMjcgICAgIGMwLDEuNjYtMC44MSwyLjcxLTIuNTIsMy4wOGMwLjk1LDAuMSwxLjYyLDAuNDgsMi4xNCwxczAuNzYsMS4yMywwLjc2LDEuOTlDNy4zMyw1Mi4yMiw2Ljk1LDUzLjE3LDYuMDQsNTMuODN6Ii8+JiN4YTsJCTwvZz4mI3hhOwkJPGcgaWQ9InNoYXBlNDM4Ny0xNSIgdHJhbnNmb3JtPSJ0cmFuc2xhdGUoNDcuMDU2MSwtMTUuNTg3MSkiPiYjeGE7CQkJPHRpdGxlPlNoZWV0LjQzODc8L3RpdGxlPiYjeGE7CQkJPHBhdGggc3R5bGU9ImZpbGw6I0ZGRkZGRjsiIGQ9Ik0xLjI1LDUyLjEzYy0wLjEtMC4wNS0wLjI0LTAuMDUtMC4zOC0wLjA1Yy0wLjI0LDAtMC40OCwwLjA1LTAuNjIsMC4yOSAgICAgYy0wLjE0LDAuMjMtMC4yNCwwLjQ3LTAuMjQsMC44NXYxLjY2aC0wLjc2di0zLjQxaDAuNzZ2MC42NmMwLjEtMC4yNCwwLjI0LTAuNDMsMC4zOC0wLjUyYzAuMTQtMC4xNCwwLjMzLTAuMjQsMC41Mi0wLjI0ICAgICBzMC4yNCwwLDAuMzQsMC4xVjUyLjEzeiIvPiYjeGE7CQk8L2c+JiN4YTsJCTxnIGlkPSJzaGFwZTQzODgtMTciIHRyYW5zZm9ybT0idHJhbnNsYXRlKDQ5LjMzNjgsLTE1LjU4NzEpIj4mI3hhOwkJCTx0aXRsZT5TaGVldC40Mzg4PC90aXRsZT4mI3hhOwkJCTxwYXRoIHN0eWxlPSJmaWxsOiNGRkZGRkY7IiBkPSJNMi41Myw1NC43OEgxLjc3di0wLjYxYy0wLjI0LDAuNDctMC42MiwwLjcxLTEuMTQsMC43MWMtMC40OCwwLTAuNzYtMC4xNS0xLTAuNDggICAgIGMtMC4yNC0wLjI4LTAuMzgtMC43NS0wLjM4LTEuMThjMC0wLjU3LDAuMTQtMSwwLjQ4LTEuMzhjMC4yOC0wLjMzLDAuNjYtMC41MiwxLjE0LTAuNTJjMC40MiwwLDAuNzYsMC4xNSwwLjk5LDAuNTJ2LTIuMTNoMC43NiAgICAgdjUuMDdIMi41M3ogTTEuNzcsNTMuMjd2LTAuNDNjMC0wLjI0LTAuMS0wLjQ3LTAuMjQtMC42MmMtMC4xNC0wLjE0LTAuMzgtMC4yMy0wLjYyLTAuMjNjLTAuMjgsMC0wLjUyLDAuMDktMC42NiwwLjI4ICAgICBjLTAuMTQsMC4yNC0wLjI0LDAuNTctMC4yNCwwLjk1YzAsMC4zOCwwLjEsMC41NywwLjI0LDAuOGMwLjE0LDAuMjQsMC4zOCwwLjM0LDAuNjIsMC4zNGMwLjIzLDAsMC40Mi0wLjEsMC42MS0wLjM0ICAgICBDMS42Myw1My43OSwxLjc3LDUzLjYsMS43Nyw1My4yN3oiLz4mI3hhOwkJPC9nPiYjeGE7CTwvZz4mI3hhOzwvZz4mI3hhOzwvc3ZnPg==;" parent="1" vertex="1">
          <mxGeometry x="637" y="757.5" width="58" height="55" as="geometry" />
        </mxCell>
        <mxCell id="JBRybCOSU0B7M9foIgmK-28" value="External Data&lt;div&gt;Source&lt;/div&gt;" style="text;strokeColor=none;fillColor=none;html=1;fontSize=24;fontStyle=1;verticalAlign=middle;align=center;" parent="1" vertex="1">
          <mxGeometry x="615.87" y="822" width="100" height="40" as="geometry" />
        </mxCell>
        <mxCell id="jVJLE2luBFFKWMK33xKC-56" value="Leveling System" style="text;strokeColor=none;fillColor=none;html=1;fontSize=24;fontStyle=1;verticalAlign=middle;align=center;" vertex="1" parent="1">
          <mxGeometry x="114.62" y="70" width="100" height="40" as="geometry" />
        </mxCell>
        <mxCell id="jVJLE2luBFFKWMK33xKC-57" value="" style="rounded=1;whiteSpace=wrap;html=1;container=0;" vertex="1" parent="1">
          <mxGeometry x="449.66999999999996" y="-720.5" width="105" height="45" as="geometry" />
        </mxCell>
        <mxCell id="jVJLE2luBFFKWMK33xKC-58" value="Store event queue" style="text;html=1;align=center;verticalAlign=middle;whiteSpace=wrap;rounded=0;container=0;" vertex="1" parent="1">
          <mxGeometry x="484.03" y="-713" width="72.97" height="30" as="geometry" />
        </mxCell>
        <mxCell id="jVJLE2luBFFKWMK33xKC-59" value="" style="outlineConnect=0;dashed=0;verticalLabelPosition=bottom;verticalAlign=top;align=center;html=1;shape=mxgraph.aws3.cache_node;fillColor=#2E73B8;gradientColor=none;" vertex="1" parent="1">
          <mxGeometry x="457.03" y="-713.5" width="30" height="30" as="geometry" />
        </mxCell>
      </root>
    </mxGraphModel>
  </diagram>
</mxfile>
